<?xml version="1.0" encoding="UTF-8" standalone="no"?>
<!DOCTYPE svg PUBLIC "-//W3C//DTD SVG 1.1//EN"
 "http://www.w3.org/Graphics/SVG/1.1/DTD/svg11.dtd">
<!-- Generated by graphviz version 2.43.0 (0)
 -->
<!-- Title: %3 Pages: 1 -->
<svg width="1611pt" height="548pt"
 viewBox="0.00 0.00 1611.49 548.00" xmlns="http://www.w3.org/2000/svg" xmlns:xlink="http://www.w3.org/1999/xlink">
<g id="graph0" class="graph" transform="scale(1 1) rotate(0) translate(4 544)">
<title>%3</title>
<polygon fill="white" stroke="transparent" points="-4,4 -4,-544 1607.49,-544 1607.49,4 -4,4"/>
<!-- quickwit&#45;actors -->
<g id="node1" class="node">
<title>quickwit&#45;actors</title>
<ellipse fill="none" stroke="black" cx="1214" cy="-234" rx="65.79" ry="18"/>
<text text-anchor="middle" x="1214" y="-230.3" font-family="Times,serif" font-size="14.00">quickwit&#45;actors</text>
</g>
<!-- quickwit&#45;common -->
<g id="node2" class="node">
<title>quickwit&#45;common</title>
<ellipse fill="none" stroke="black" cx="1041" cy="-162" rx="76.09" ry="18"/>
<text text-anchor="middle" x="1041" y="-158.3" font-family="Times,serif" font-size="14.00">quickwit&#45;common</text>
</g>
<!-- quickwit&#45;actors&#45;&gt;quickwit&#45;common -->
<g id="edge1" class="edge">
<title>quickwit&#45;actors&#45;&gt;quickwit&#45;common</title>
<path fill="none" stroke="black" d="M1178.57,-218.67C1152.11,-207.96 1115.7,-193.23 1086.99,-181.61"/>
<polygon fill="black" stroke="black" points="1088.15,-178.3 1077.57,-177.8 1085.53,-184.79 1088.15,-178.3"/>
</g>
<!-- quickwit&#45;index&#45;config -->
<g id="node3" class="node">
<title>quickwit&#45;index&#45;config</title>
<ellipse fill="none" stroke="black" cx="649" cy="-90" rx="89.08" ry="18"/>
<text text-anchor="middle" x="649" y="-86.3" font-family="Times,serif" font-size="14.00">quickwit&#45;index&#45;config</text>
</g>
<!-- quickwit&#45;common&#45;&gt;quickwit&#45;index&#45;config -->
<g id="edge2" class="edge">
<title>quickwit&#45;common&#45;&gt;quickwit&#45;index&#45;config</title>
<path fill="none" stroke="black" d="M983.89,-150.1C972.97,-148.05 961.64,-145.94 951,-144 873.86,-129.95 785.51,-114.52 724.38,-103.95"/>
<polygon fill="black" stroke="black" points="724.88,-100.49 714.43,-102.23 723.69,-107.38 724.88,-100.49"/>
</g>
<!-- quickwit&#45;storage -->
<g id="node4" class="node">
<title>quickwit&#45;storage</title>
<ellipse fill="none" stroke="black" cx="1223" cy="-90" rx="69.59" ry="18"/>
<text text-anchor="middle" x="1223" y="-86.3" font-family="Times,serif" font-size="14.00">quickwit&#45;storage</text>
</g>
<!-- quickwit&#45;common&#45;&gt;quickwit&#45;storage -->
<g id="edge3" class="edge">
<title>quickwit&#45;common&#45;&gt;quickwit&#45;storage</title>
<path fill="none" stroke="black" d="M1074.81,-145.81C1102.36,-134.7 1141.52,-119.61 1172.71,-108.08"/>
<polygon fill="black" stroke="black" points="1173.94,-111.35 1182.11,-104.62 1171.52,-104.78 1173.94,-111.35"/>
</g>
<!-- tantivy -->
<g id="node5" class="node">
<title>tantivy</title>
<ellipse fill="none" stroke="black" cx="1381" cy="-18" rx="35.19" ry="18"/>
<text text-anchor="middle" x="1381" y="-14.3" font-family="Times,serif" font-size="14.00">tantivy</text>
</g>
<!-- quickwit&#45;index&#45;config&#45;&gt;tantivy -->
<g id="edge4" class="edge">
<title>quickwit&#45;index&#45;config&#45;&gt;tantivy</title>
<path fill="none" stroke="black" d="M727.68,-81.48C881.25,-66.79 1216.38,-34.74 1336.8,-23.23"/>
<polygon fill="black" stroke="black" points="1337.16,-26.71 1346.78,-22.27 1336.49,-19.74 1337.16,-26.71"/>
</g>
<!-- quickwit&#45;proto -->
<g id="node6" class="node">
<title>quickwit&#45;proto</title>
<ellipse fill="none" stroke="black" cx="114" cy="-18" rx="63.09" ry="18"/>
<text text-anchor="middle" x="114" y="-14.3" font-family="Times,serif" font-size="14.00">quickwit&#45;proto</text>
</g>
<!-- quickwit&#45;index&#45;config&#45;&gt;quickwit&#45;proto -->
<g id="edge5" class="edge">
<title>quickwit&#45;index&#45;config&#45;&gt;quickwit&#45;proto</title>
<path fill="none" stroke="black" d="M576.57,-79.52C472.25,-65.87 281.19,-40.87 180.36,-27.68"/>
<polygon fill="black" stroke="black" points="180.66,-24.19 170.3,-26.37 179.76,-31.13 180.66,-24.19"/>
</g>
<!-- quickwit&#45;storage&#45;&gt;quickwit&#45;common -->
<g id="edge6" class="edge">
<title>quickwit&#45;storage&#45;&gt;quickwit&#45;common</title>
<path fill="none" stroke="black" d="M1189.98,-105.87C1162.84,-116.83 1124.05,-131.79 1092.81,-143.36"/>
<polygon fill="black" stroke="black" points="1091.55,-140.09 1083.38,-146.83 1093.97,-146.66 1091.55,-140.09"/>
</g>
<!-- quickwit&#45;storage&#45;&gt;tantivy -->
<g id="edge7" class="edge">
<title>quickwit&#45;storage&#45;&gt;tantivy</title>
<path fill="none" stroke="black" d="M1256.51,-74.15C1282.81,-62.5 1319.31,-46.33 1345.99,-34.51"/>
<polygon fill="black" stroke="black" points="1347.61,-37.62 1355.34,-30.37 1344.78,-31.22 1347.61,-37.62"/>
</g>
<!-- quickwit&#45;backward&#45;compat -->
<g id="node7" class="node">
<title>quickwit&#45;backward&#45;compat</title>
<ellipse fill="none" stroke="black" cx="586" cy="-306" rx="107.78" ry="18"/>
<text text-anchor="middle" x="586" y="-302.3" font-family="Times,serif" font-size="14.00">quickwit&#45;backward&#45;compat</text>
</g>
<!-- quickwit&#45;backward&#45;compat&#45;&gt;quickwit&#45;index&#45;config -->
<g id="edge9" class="edge">
<title>quickwit&#45;backward&#45;compat&#45;&gt;quickwit&#45;index&#45;config</title>
<path fill="none" stroke="black" d="M591.05,-287.85C601.97,-250.75 627.86,-162.81 641.02,-118.1"/>
<polygon fill="black" stroke="black" points="644.46,-118.81 643.93,-108.23 637.75,-116.84 644.46,-118.81"/>
</g>
<!-- quickwit&#45;metastore -->
<g id="node8" class="node">
<title>quickwit&#45;metastore</title>
<ellipse fill="none" stroke="black" cx="747" cy="-234" rx="79.09" ry="18"/>
<text text-anchor="middle" x="747" y="-230.3" font-family="Times,serif" font-size="14.00">quickwit&#45;metastore</text>
</g>
<!-- quickwit&#45;backward&#45;compat&#45;&gt;quickwit&#45;metastore -->
<g id="edge8" class="edge">
<title>quickwit&#45;backward&#45;compat&#45;&gt;quickwit&#45;metastore</title>
<path fill="none" stroke="black" d="M622.94,-288.94C646.64,-278.63 677.57,-265.19 702.61,-254.3"/>
<polygon fill="black" stroke="black" points="704.12,-257.46 711.89,-250.26 701.33,-251.04 704.12,-257.46"/>
</g>
<!-- quickwit&#45;metastore&#45;&gt;quickwit&#45;index&#45;config -->
<g id="edge10" class="edge">
<title>quickwit&#45;metastore&#45;&gt;quickwit&#45;index&#45;config</title>
<path fill="none" stroke="black" d="M735.37,-216.15C718.37,-191.52 686.59,-145.47 666.69,-116.63"/>
<polygon fill="black" stroke="black" points="669.48,-114.51 660.92,-108.27 663.72,-118.49 669.48,-114.51"/>
</g>
<!-- quickwit&#45;metastore&#45;&gt;quickwit&#45;storage -->
<g id="edge11" class="edge">
<title>quickwit&#45;metastore&#45;&gt;quickwit&#45;storage</title>
<path fill="none" stroke="black" d="M765.75,-216.5C790.22,-195.96 835.21,-161.45 880,-144 966.42,-110.33 1072.93,-97.99 1144.12,-93.5"/>
<polygon fill="black" stroke="black" points="1144.58,-96.98 1154.36,-92.89 1144.17,-89.99 1144.58,-96.98"/>
</g>
<!-- quickwit&#45;cli -->
<g id="node9" class="node">
<title>quickwit&#45;cli</title>
<ellipse fill="none" stroke="black" cx="1004" cy="-522" rx="53.09" ry="18"/>
<text text-anchor="middle" x="1004" y="-518.3" font-family="Times,serif" font-size="14.00">quickwit&#45;cli</text>
</g>
<!-- quickwit&#45;cli&#45;&gt;quickwit&#45;actors -->
<g id="edge16" class="edge">
<title>quickwit&#45;cli&#45;&gt;quickwit&#45;actors</title>
<path fill="none" stroke="black" d="M1021.22,-504.75C1054.43,-472.72 1128.16,-398.06 1175,-324 1187.48,-304.27 1197.86,-279.87 1204.77,-261.61"/>
<polygon fill="black" stroke="black" points="1208.07,-262.76 1208.24,-252.16 1201.5,-260.34 1208.07,-262.76"/>
</g>
<!-- quickwit&#45;cli&#45;&gt;quickwit&#45;common -->
<g id="edge21" class="edge">
<title>quickwit&#45;cli&#45;&gt;quickwit&#45;common</title>
<path fill="none" stroke="black" d="M1002.76,-503.93C1000.26,-465.27 995.77,-368.13 1007,-288 1011.86,-253.35 1023.37,-214.65 1031.65,-189.62"/>
<polygon fill="black" stroke="black" points="1034.98,-190.7 1034.86,-180.1 1028.35,-188.46 1034.98,-190.7"/>
</g>
<!-- quickwit&#45;cli&#45;&gt;quickwit&#45;index&#45;config -->
<g id="edge17" class="edge">
<title>quickwit&#45;cli&#45;&gt;quickwit&#45;index&#45;config</title>
<path fill="none" stroke="black" d="M951.45,-518.55C755.14,-508.71 76,-468.24 76,-379 76,-379 76,-379 76,-305 76,-194.99 163.67,-189.11 264,-144 314.67,-121.22 459.45,-105.82 556.31,-97.73"/>
<polygon fill="black" stroke="black" points="556.73,-101.2 566.41,-96.89 556.15,-94.23 556.73,-101.2"/>
</g>
<!-- quickwit&#45;cli&#45;&gt;quickwit&#45;storage -->
<g id="edge18" class="edge">
<title>quickwit&#45;cli&#45;&gt;quickwit&#45;storage</title>
<path fill="none" stroke="black" d="M1057.07,-519.67C1203.42,-514.59 1602,-490.51 1602,-379 1602,-379 1602,-379 1602,-305 1602,-264.55 1607.97,-247.82 1583,-216 1515.48,-129.98 1385.09,-102.93 1301.15,-94.56"/>
<polygon fill="black" stroke="black" points="1301.43,-91.07 1291.15,-93.63 1300.78,-98.04 1301.43,-91.07"/>
</g>
<!-- quickwit&#45;cli&#45;&gt;quickwit&#45;proto -->
<g id="edge19" class="edge">
<title>quickwit&#45;cli&#45;&gt;quickwit&#45;proto</title>
<path fill="none" stroke="black" d="M950.77,-520.52C790.91,-518.64 316.96,-509.6 169,-468 87.28,-445.03 0,-463.89 0,-379 0,-379 0,-379 0,-161 0,-108.98 47.1,-65.16 80.75,-40.5"/>
<polygon fill="black" stroke="black" points="82.86,-43.29 88.98,-34.65 78.8,-37.59 82.86,-43.29"/>
</g>
<!-- quickwit&#45;cli&#45;&gt;quickwit&#45;metastore -->
<g id="edge14" class="edge">
<title>quickwit&#45;cli&#45;&gt;quickwit&#45;metastore</title>
<path fill="none" stroke="black" d="M953.82,-515.92C918.34,-509.89 871.78,-496.73 841,-468 780.37,-411.42 757.95,-310.37 750.43,-262.11"/>
<polygon fill="black" stroke="black" points="753.87,-261.49 748.96,-252.11 746.95,-262.51 753.87,-261.49"/>
</g>
<!-- quickwit&#45;core -->
<g id="node10" class="node">
<title>quickwit&#45;core</title>
<ellipse fill="none" stroke="black" cx="1282" cy="-378" rx="59.59" ry="18"/>
<text text-anchor="middle" x="1282" y="-374.3" font-family="Times,serif" font-size="14.00">quickwit&#45;core</text>
</g>
<!-- quickwit&#45;cli&#45;&gt;quickwit&#45;core -->
<g id="edge12" class="edge">
<title>quickwit&#45;cli&#45;&gt;quickwit&#45;core</title>
<path fill="none" stroke="black" d="M1054.83,-516.57C1098.35,-510.82 1161.2,-497.71 1208,-468 1233.16,-452.03 1254,-424.7 1267.08,-404.53"/>
<polygon fill="black" stroke="black" points="1270.19,-406.16 1272.54,-395.83 1264.26,-402.44 1270.19,-406.16"/>
</g>
<!-- quickwit&#45;indexing -->
<g id="node11" class="node">
<title>quickwit&#45;indexing</title>
<ellipse fill="none" stroke="black" cx="1091" cy="-306" rx="75.29" ry="18"/>
<text text-anchor="middle" x="1091" y="-302.3" font-family="Times,serif" font-size="14.00">quickwit&#45;indexing</text>
</g>
<!-- quickwit&#45;cli&#45;&gt;quickwit&#45;indexing -->
<g id="edge13" class="edge">
<title>quickwit&#45;cli&#45;&gt;quickwit&#45;indexing</title>
<path fill="none" stroke="black" d="M1010.97,-503.85C1026.15,-466.5 1062.29,-377.63 1080.34,-333.21"/>
<polygon fill="black" stroke="black" points="1083.59,-334.52 1084.12,-323.94 1077.11,-331.88 1083.59,-334.52"/>
</g>
<!-- quickwit&#45;search -->
<g id="node12" class="node">
<title>quickwit&#45;search</title>
<ellipse fill="none" stroke="black" cx="665" cy="-378" rx="66.89" ry="18"/>
<text text-anchor="middle" x="665" y="-374.3" font-family="Times,serif" font-size="14.00">quickwit&#45;search</text>
</g>
<!-- quickwit&#45;cli&#45;&gt;quickwit&#45;search -->
<g id="edge15" class="edge">
<title>quickwit&#45;cli&#45;&gt;quickwit&#45;search</title>
<path fill="none" stroke="black" d="M950.98,-519.62C896.33,-516.1 810.28,-504.59 746,-468 718.83,-452.53 695.75,-424.74 681.26,-404.32"/>
<polygon fill="black" stroke="black" points="684.14,-402.33 675.59,-396.07 678.37,-406.3 684.14,-402.33"/>
</g>
<!-- quickwit&#45;directories -->
<g id="node13" class="node">
<title>quickwit&#45;directories</title>
<ellipse fill="none" stroke="black" cx="1493" cy="-234" rx="81.49" ry="18"/>
<text text-anchor="middle" x="1493" y="-230.3" font-family="Times,serif" font-size="14.00">quickwit&#45;directories</text>
</g>
<!-- quickwit&#45;cli&#45;&gt;quickwit&#45;directories -->
<g id="edge20" class="edge">
<title>quickwit&#45;cli&#45;&gt;quickwit&#45;directories</title>
<path fill="none" stroke="black" d="M1057.5,-521.01C1151.22,-518.19 1346.29,-499.31 1464,-396 1501.82,-362.81 1500.37,-338.27 1498,-288 1497.61,-279.66 1496.87,-270.6 1496.08,-262.37"/>
<polygon fill="black" stroke="black" points="1499.53,-261.75 1495.03,-252.16 1492.57,-262.46 1499.53,-261.75"/>
</g>
<!-- quickwit&#45;serve -->
<g id="node14" class="node">
<title>quickwit&#45;serve</title>
<ellipse fill="none" stroke="black" cx="913" cy="-450" rx="63.09" ry="18"/>
<text text-anchor="middle" x="913" y="-446.3" font-family="Times,serif" font-size="14.00">quickwit&#45;serve</text>
</g>
<!-- quickwit&#45;cli&#45;&gt;quickwit&#45;serve -->
<g id="edge22" class="edge">
<title>quickwit&#45;cli&#45;&gt;quickwit&#45;serve</title>
<path fill="none" stroke="black" d="M983.35,-505.12C971.1,-495.7 955.39,-483.61 941.93,-473.25"/>
<polygon fill="black" stroke="black" points="943.94,-470.39 933.88,-467.06 939.67,-475.93 943.94,-470.39"/>
</g>
<!-- quickwit&#45;core&#45;&gt;quickwit&#45;actors -->
<g id="edge25" class="edge">
<title>quickwit&#45;core&#45;&gt;quickwit&#45;actors</title>
<path fill="none" stroke="black" d="M1273.93,-360.15C1262.24,-335.73 1240.46,-290.26 1226.63,-261.38"/>
<polygon fill="black" stroke="black" points="1229.74,-259.78 1222.27,-252.27 1223.43,-262.8 1229.74,-259.78"/>
</g>
<!-- quickwit&#45;core&#45;&gt;quickwit&#45;common -->
<g id="edge30" class="edge">
<title>quickwit&#45;core&#45;&gt;quickwit&#45;common</title>
<path fill="none" stroke="black" d="M1289.43,-359.67C1301.95,-327.44 1322.78,-257.76 1289,-216 1268.2,-190.29 1186.43,-176.5 1122.39,-169.5"/>
<polygon fill="black" stroke="black" points="1122.59,-166 1112.28,-168.43 1121.86,-172.96 1122.59,-166"/>
</g>
<!-- quickwit&#45;core&#45;&gt;quickwit&#45;index&#45;config -->
<g id="edge27" class="edge">
<title>quickwit&#45;core&#45;&gt;quickwit&#45;index&#45;config</title>
<path fill="none" stroke="black" d="M1224.89,-372.46C1167.97,-366.46 1078.91,-353.03 1007,-324 989.25,-316.84 767.32,-169.7 682.06,-113.01"/>
<polygon fill="black" stroke="black" points="683.8,-109.96 673.53,-107.34 679.92,-115.79 683.8,-109.96"/>
</g>
<!-- quickwit&#45;core&#45;&gt;quickwit&#45;storage -->
<g id="edge28" class="edge">
<title>quickwit&#45;core&#45;&gt;quickwit&#45;storage</title>
<path fill="none" stroke="black" d="M1296.82,-360.17C1304.46,-350.35 1313,-337.31 1317,-324 1323.1,-303.68 1313.92,-224.05 1311,-216 1296.76,-176.78 1266.82,-138.58 1245.83,-114.95"/>
<polygon fill="black" stroke="black" points="1248.4,-112.57 1239.09,-107.51 1243.21,-117.27 1248.4,-112.57"/>
</g>
<!-- quickwit&#45;core&#45;&gt;tantivy -->
<g id="edge26" class="edge">
<title>quickwit&#45;core&#45;&gt;tantivy</title>
<path fill="none" stroke="black" d="M1338.34,-371.9C1409.27,-362.12 1528.42,-333.77 1583,-252 1626.11,-187.42 1571.42,-140.21 1495,-72 1473.63,-52.92 1444.21,-39.48 1420.6,-30.9"/>
<polygon fill="black" stroke="black" points="1421.48,-27.5 1410.89,-27.52 1419.18,-34.11 1421.48,-27.5"/>
</g>
<!-- quickwit&#45;core&#45;&gt;quickwit&#45;metastore -->
<g id="edge24" class="edge">
<title>quickwit&#45;core&#45;&gt;quickwit&#45;metastore</title>
<path fill="none" stroke="black" d="M1222.04,-377.88C1144.38,-377 1006.14,-368.49 898,-324 873.34,-313.85 872.6,-302.15 850,-288 830.66,-275.89 808.24,-264.11 789.26,-254.74"/>
<polygon fill="black" stroke="black" points="790.77,-251.58 780.25,-250.34 787.7,-257.87 790.77,-251.58"/>
</g>
<!-- quickwit&#45;core&#45;&gt;quickwit&#45;indexing -->
<g id="edge23" class="edge">
<title>quickwit&#45;core&#45;&gt;quickwit&#45;indexing</title>
<path fill="none" stroke="black" d="M1245.62,-363.67C1215.68,-352.69 1172.94,-337.03 1139.98,-324.95"/>
<polygon fill="black" stroke="black" points="1141.13,-321.64 1130.53,-321.49 1138.72,-328.22 1141.13,-321.64"/>
</g>
<!-- quickwit&#45;core&#45;&gt;quickwit&#45;directories -->
<g id="edge29" class="edge">
<title>quickwit&#45;core&#45;&gt;quickwit&#45;directories</title>
<path fill="none" stroke="black" d="M1305.39,-361.26C1343.13,-335.86 1417.57,-285.76 1460.47,-256.9"/>
<polygon fill="black" stroke="black" points="1462.52,-259.73 1468.86,-251.25 1458.61,-253.93 1462.52,-259.73"/>
</g>
<!-- quickwit&#45;indexing&#45;&gt;quickwit&#45;actors -->
<g id="edge34" class="edge">
<title>quickwit&#45;indexing&#45;&gt;quickwit&#45;actors</title>
<path fill="none" stroke="black" d="M1118.91,-289.12C1136.33,-279.2 1158.94,-266.34 1177.74,-255.64"/>
<polygon fill="black" stroke="black" points="1179.66,-258.57 1186.62,-250.58 1176.2,-252.48 1179.66,-258.57"/>
</g>
<!-- quickwit&#45;indexing&#45;&gt;quickwit&#45;common -->
<g id="edge39" class="edge">
<title>quickwit&#45;indexing&#45;&gt;quickwit&#45;common</title>
<path fill="none" stroke="black" d="M1083.04,-288.02C1078.36,-277.72 1072.5,-264.24 1068,-252 1060.46,-231.47 1053.34,-207.76 1048.31,-189.97"/>
<polygon fill="black" stroke="black" points="1051.66,-188.95 1045.6,-180.25 1044.91,-190.83 1051.66,-188.95"/>
</g>
<!-- quickwit&#45;indexing&#45;&gt;quickwit&#45;index&#45;config -->
<g id="edge36" class="edge">
<title>quickwit&#45;indexing&#45;&gt;quickwit&#45;index&#45;config</title>
<path fill="none" stroke="black" d="M1069.29,-288.6C1026.19,-256.7 925.83,-185.79 832,-144 795.56,-127.77 752.84,-115.07 717.85,-106.18"/>
<polygon fill="black" stroke="black" points="718.27,-102.67 707.72,-103.65 716.58,-109.47 718.27,-102.67"/>
</g>
<!-- quickwit&#45;indexing&#45;&gt;quickwit&#45;storage -->
<g id="edge37" class="edge">
<title>quickwit&#45;indexing&#45;&gt;quickwit&#45;storage</title>
<path fill="none" stroke="black" d="M1091,-287.7C1091.65,-269.08 1094.6,-239.03 1106,-216 1126.67,-174.23 1165.91,-136.74 1193.22,-113.95"/>
<polygon fill="black" stroke="black" points="1195.75,-116.41 1201.27,-107.37 1191.32,-110.99 1195.75,-116.41"/>
</g>
<!-- quickwit&#45;indexing&#45;&gt;tantivy -->
<g id="edge35" class="edge">
<title>quickwit&#45;indexing&#45;&gt;tantivy</title>
<path fill="none" stroke="black" d="M1097.2,-288.06C1104.83,-268.93 1119.23,-237.65 1139,-216 1197.61,-151.83 1236.38,-164.98 1302,-108 1324.86,-88.15 1347.44,-61.86 1362.57,-43.01"/>
<polygon fill="black" stroke="black" points="1365.5,-44.93 1368.96,-34.92 1360.01,-40.59 1365.5,-44.93"/>
</g>
<!-- quickwit&#45;indexing&#45;&gt;quickwit&#45;metastore -->
<g id="edge33" class="edge">
<title>quickwit&#45;indexing&#45;&gt;quickwit&#45;metastore</title>
<path fill="none" stroke="black" d="M1035.73,-293.75C975.34,-281.46 878.59,-261.78 813.94,-248.62"/>
<polygon fill="black" stroke="black" points="814.35,-245.13 803.85,-246.57 812.95,-251.99 814.35,-245.13"/>
</g>
<!-- quickwit&#45;indexing&#45;&gt;quickwit&#45;directories -->
<g id="edge38" class="edge">
<title>quickwit&#45;indexing&#45;&gt;quickwit&#45;directories</title>
<path fill="none" stroke="black" d="M1149.88,-294.75C1221.89,-282.21 1343.72,-260.99 1421.16,-247.51"/>
<polygon fill="black" stroke="black" points="1422.06,-250.9 1431.32,-245.74 1420.86,-244.01 1422.06,-250.9"/>
</g>
<!-- quickwit&#45;search&#45;&gt;quickwit&#45;common -->
<g id="edge48" class="edge">
<title>quickwit&#45;search&#45;&gt;quickwit&#45;common</title>
<path fill="none" stroke="black" d="M602.52,-371.47C532.34,-362.63 432.69,-340.59 469,-288 523.88,-208.51 812.57,-178.15 957.63,-167.79"/>
<polygon fill="black" stroke="black" points="958.09,-171.26 967.82,-167.07 957.6,-164.28 958.09,-171.26"/>
</g>
<!-- quickwit&#45;search&#45;&gt;quickwit&#45;index&#45;config -->
<g id="edge44" class="edge">
<title>quickwit&#45;search&#45;&gt;quickwit&#45;index&#45;config</title>
<path fill="none" stroke="black" d="M605.12,-369.82C550.61,-361.91 475.97,-347.15 458,-324 396.1,-244.26 536.09,-152.32 608.74,-111.9"/>
<polygon fill="black" stroke="black" points="610.59,-114.88 617.67,-107 607.22,-108.74 610.59,-114.88"/>
</g>
<!-- quickwit&#45;search&#45;&gt;quickwit&#45;storage -->
<g id="edge45" class="edge">
<title>quickwit&#45;search&#45;&gt;quickwit&#45;storage</title>
<path fill="none" stroke="black" d="M688.06,-361.09C721.25,-337.96 784.07,-293.3 835,-252 890.99,-206.6 891.48,-176.15 956,-144 1015.53,-114.33 1090.3,-101.27 1145.57,-95.52"/>
<polygon fill="black" stroke="black" points="1146.04,-98.99 1155.65,-94.52 1145.36,-92.02 1146.04,-98.99"/>
</g>
<!-- quickwit&#45;search&#45;&gt;tantivy -->
<g id="edge43" class="edge">
<title>quickwit&#45;search&#45;&gt;tantivy</title>
<path fill="none" stroke="black" d="M608.3,-368.33C550.77,-358.72 466.42,-342.17 439,-324 398.17,-296.95 374,-283.98 374,-235 374,-235 374,-235 374,-161 374,-72.95 466.02,-95.05 551,-72 700.87,-31.35 1184.81,-21.6 1335.66,-19.51"/>
<polygon fill="black" stroke="black" points="1335.99,-23.01 1345.94,-19.38 1335.89,-16.01 1335.99,-23.01"/>
</g>
<!-- quickwit&#45;search&#45;&gt;quickwit&#45;proto -->
<g id="edge46" class="edge">
<title>quickwit&#45;search&#45;&gt;quickwit&#45;proto</title>
<path fill="none" stroke="black" d="M600.05,-373.43C479.68,-366.25 231.39,-348.64 201,-324 115.44,-254.62 110.48,-107.42 112.39,-46.4"/>
<polygon fill="black" stroke="black" points="115.9,-46.18 112.81,-36.04 108.91,-45.89 115.9,-46.18"/>
</g>
<!-- quickwit&#45;search&#45;&gt;quickwit&#45;metastore -->
<g id="edge41" class="edge">
<title>quickwit&#45;search&#45;&gt;quickwit&#45;metastore</title>
<path fill="none" stroke="black" d="M678.05,-360.29C685.74,-350.09 695.43,-336.62 703,-324 715.2,-303.67 726.99,-279.5 735.29,-261.48"/>
<polygon fill="black" stroke="black" points="738.57,-262.72 739.52,-252.17 732.2,-259.82 738.57,-262.72"/>
</g>
<!-- quickwit&#45;search&#45;&gt;quickwit&#45;indexing -->
<g id="edge42" class="edge">
<title>quickwit&#45;search&#45;&gt;quickwit&#45;indexing</title>
<path fill="none" stroke="black" d="M720.69,-367.85C797.74,-355.19 936.82,-332.33 1020.86,-318.53"/>
<polygon fill="black" stroke="black" points="1021.53,-321.96 1030.83,-316.89 1020.39,-315.06 1021.53,-321.96"/>
</g>
<!-- quickwit&#45;search&#45;&gt;quickwit&#45;directories -->
<g id="edge47" class="edge">
<title>quickwit&#45;search&#45;&gt;quickwit&#45;directories</title>
<path fill="none" stroke="black" d="M730.32,-373.76C827.84,-368.12 1016.94,-354.11 1175,-324 1270.15,-305.88 1378.23,-272.91 1440.72,-252.58"/>
<polygon fill="black" stroke="black" points="1441.93,-255.87 1450.34,-249.43 1439.75,-249.22 1441.93,-255.87"/>
</g>
<!-- quickwit&#45;cluster -->
<g id="node15" class="node">
<title>quickwit&#45;cluster</title>
<ellipse fill="none" stroke="black" cx="278" cy="-306" rx="67.69" ry="18"/>
<text text-anchor="middle" x="278" y="-302.3" font-family="Times,serif" font-size="14.00">quickwit&#45;cluster</text>
</g>
<!-- quickwit&#45;search&#45;&gt;quickwit&#45;cluster -->
<g id="edge40" class="edge">
<title>quickwit&#45;search&#45;&gt;quickwit&#45;cluster</title>
<path fill="none" stroke="black" d="M609.53,-367.91C548.33,-357.76 446.98,-340.57 360,-324 353.28,-322.72 346.27,-321.34 339.29,-319.93"/>
<polygon fill="black" stroke="black" points="339.62,-316.43 329.13,-317.87 338.23,-323.29 339.62,-316.43"/>
</g>
<!-- quickwit&#45;directories&#45;&gt;quickwit&#45;storage -->
<g id="edge31" class="edge">
<title>quickwit&#45;directories&#45;&gt;quickwit&#45;storage</title>
<path fill="none" stroke="black" d="M1479.31,-216.12C1462.25,-196.15 1431.28,-163.2 1398,-144 1364.22,-124.5 1322.55,-111.51 1288.35,-103.27"/>
<polygon fill="black" stroke="black" points="1288.99,-99.83 1278.45,-100.97 1287.4,-106.65 1288.99,-99.83"/>
</g>
<!-- quickwit&#45;directories&#45;&gt;tantivy -->
<g id="edge32" class="edge">
<title>quickwit&#45;directories&#45;&gt;tantivy</title>
<path fill="none" stroke="black" d="M1495.69,-215.8C1499.65,-184.38 1503.69,-116.81 1474,-72 1461.44,-53.05 1439.65,-40.11 1420.32,-31.76"/>
<polygon fill="black" stroke="black" points="1421.37,-28.41 1410.78,-27.91 1418.75,-34.9 1421.37,-28.41"/>
</g>
<!-- quickwit&#45;serve&#45;&gt;quickwit&#45;common -->
<g id="edge61" class="edge">
<title>quickwit&#45;serve&#45;&gt;quickwit&#45;common</title>
<path fill="none" stroke="black" d="M911.48,-431.73C908.75,-390.5 907.11,-284.7 954,-216 963.74,-201.73 978.72,-190.63 993.53,-182.36"/>
<polygon fill="black" stroke="black" points="995.43,-185.31 1002.67,-177.57 992.19,-179.11 995.43,-185.31"/>
</g>
<!-- quickwit&#45;serve&#45;&gt;quickwit&#45;index&#45;config -->
<g id="edge57" class="edge">
<title>quickwit&#45;serve&#45;&gt;quickwit&#45;index&#45;config</title>
<path fill="none" stroke="black" d="M850.14,-448.37C690.83,-445.27 278.43,-427.22 201,-324 188.32,-307.1 195.92,-231.46 209,-216 255.31,-161.28 455.16,-121.57 568.94,-102.91"/>
<polygon fill="black" stroke="black" points="569.69,-106.34 579,-101.28 568.57,-99.43 569.69,-106.34"/>
</g>
<!-- quickwit&#45;serve&#45;&gt;quickwit&#45;storage -->
<g id="edge58" class="edge">
<title>quickwit&#45;serve&#45;&gt;quickwit&#45;storage</title>
<path fill="none" stroke="black" d="M974.62,-446C1089.37,-439.78 1326.46,-423.69 1351,-396 1427.1,-310.14 1366.9,-233.41 1295,-144 1285.12,-131.71 1271.75,-120.84 1259.21,-112.18"/>
<polygon fill="black" stroke="black" points="1260.98,-109.16 1250.71,-106.55 1257.12,-114.99 1260.98,-109.16"/>
</g>
<!-- quickwit&#45;serve&#45;&gt;quickwit&#45;proto -->
<g id="edge59" class="edge">
<title>quickwit&#45;serve&#45;&gt;quickwit&#45;proto</title>
<path fill="none" stroke="black" d="M850.9,-446.64C708.05,-440.79 359.7,-424.04 246,-396 148.37,-371.92 38,-407.55 38,-307 38,-307 38,-307 38,-161 38,-115.39 68.86,-70.25 91.25,-43.5"/>
<polygon fill="black" stroke="black" points="94,-45.67 97.88,-35.81 88.7,-41.09 94,-45.67"/>
</g>
<!-- quickwit&#45;serve&#45;&gt;quickwit&#45;metastore -->
<g id="edge53" class="edge">
<title>quickwit&#45;serve&#45;&gt;quickwit&#45;metastore</title>
<path fill="none" stroke="black" d="M899.97,-432.21C870.89,-394.72 800.56,-304.04 766.34,-259.93"/>
<polygon fill="black" stroke="black" points="769.09,-257.77 760.19,-252.01 763.56,-262.06 769.09,-257.77"/>
</g>
<!-- quickwit&#45;serve&#45;&gt;quickwit&#45;core -->
<g id="edge54" class="edge">
<title>quickwit&#45;serve&#45;&gt;quickwit&#45;core</title>
<path fill="none" stroke="black" d="M963.92,-439.34C1031.57,-426.51 1150.86,-403.88 1222.56,-390.28"/>
<polygon fill="black" stroke="black" points="1223.61,-393.64 1232.78,-388.34 1222.3,-386.76 1223.61,-393.64"/>
</g>
<!-- quickwit&#45;serve&#45;&gt;quickwit&#45;indexing -->
<g id="edge55" class="edge">
<title>quickwit&#45;serve&#45;&gt;quickwit&#45;indexing</title>
<path fill="none" stroke="black" d="M933.42,-432.71C965.04,-407.49 1025.96,-358.89 1062.09,-330.07"/>
<polygon fill="black" stroke="black" points="1064.64,-332.51 1070.27,-323.54 1060.27,-327.04 1064.64,-332.51"/>
</g>
<!-- quickwit&#45;serve&#45;&gt;quickwit&#45;search -->
<g id="edge56" class="edge">
<title>quickwit&#45;serve&#45;&gt;quickwit&#45;search</title>
<path fill="none" stroke="black" d="M869.8,-436.81C827.91,-424.98 764.23,-407.01 719.01,-394.25"/>
<polygon fill="black" stroke="black" points="719.95,-390.87 709.37,-391.52 718.05,-397.61 719.95,-390.87"/>
</g>
<!-- quickwit&#45;serve&#45;&gt;quickwit&#45;directories -->
<g id="edge60" class="edge">
<title>quickwit&#45;serve&#45;&gt;quickwit&#45;directories</title>
<path fill="none" stroke="black" d="M974.91,-446.41C1105.56,-440.43 1400.38,-423.97 1436,-396 1477.28,-363.58 1488.73,-299.01 1491.86,-262.26"/>
<polygon fill="black" stroke="black" points="1495.35,-262.46 1492.56,-252.24 1488.37,-261.97 1495.35,-262.46"/>
</g>
<!-- quickwit&#45;serve&#45;&gt;quickwit&#45;cluster -->
<g id="edge52" class="edge">
<title>quickwit&#45;serve&#45;&gt;quickwit&#45;cluster</title>
<path fill="none" stroke="black" d="M856.72,-441.82C791.79,-433.07 682.02,-416.84 589,-396 496.08,-375.18 389.81,-342.89 328.64,-323.47"/>
<polygon fill="black" stroke="black" points="329.45,-320.05 318.86,-320.35 327.32,-326.72 329.45,-320.05"/>
</g>
<!-- quickwit&#45;cluster&#45;&gt;quickwit&#45;common -->
<g id="edge50" class="edge">
<title>quickwit&#45;cluster&#45;&gt;quickwit&#45;common</title>
<path fill="none" stroke="black" d="M304.84,-289.31C341.63,-268.62 410.43,-232.89 474,-216 640.09,-171.87 842.04,-163.23 954.58,-162.23"/>
<polygon fill="black" stroke="black" points="954.88,-165.73 964.85,-162.16 954.83,-158.73 954.88,-165.73"/>
</g>
<!-- quickwit&#45;cluster&#45;&gt;quickwit&#45;proto -->
<g id="edge51" class="edge">
<title>quickwit&#45;cluster&#45;&gt;quickwit&#45;proto</title>
<path fill="none" stroke="black" d="M251.28,-289.36C237.17,-280 220.45,-267.01 209,-252 183,-217.9 141,-99.04 122.84,-45.5"/>
<polygon fill="black" stroke="black" points="126.14,-44.36 119.63,-36.01 119.51,-46.6 126.14,-44.36"/>
</g>
<!-- quickwit&#45;swim -->
<g id="node16" class="node">
<title>quickwit&#45;swim</title>
<ellipse fill="none" stroke="black" cx="282" cy="-234" rx="63.89" ry="18"/>
<text text-anchor="middle" x="282" y="-230.3" font-family="Times,serif" font-size="14.00">quickwit&#45;swim</text>
</g>
<!-- quickwit&#45;cluster&#45;&gt;quickwit&#45;swim -->
<g id="edge49" class="edge">
<title>quickwit&#45;cluster&#45;&gt;quickwit&#45;swim</title>
<path fill="none" stroke="black" d="M278.99,-287.7C279.43,-279.98 279.96,-270.71 280.45,-262.11"/>
<polygon fill="black" stroke="black" points="283.95,-262.29 281.02,-252.1 276.96,-261.89 283.95,-262.29"/>
</g>
</g>
</svg>
