<?xml version="1.0" encoding="UTF-8" standalone="no"?>
<!DOCTYPE svg PUBLIC "-//W3C//DTD SVG 1.1//EN"
 "http://www.w3.org/Graphics/SVG/1.1/DTD/svg11.dtd">
<!-- Generated by graphviz version 2.43.0 (0)
 -->
<!-- Title: %3 Pages: 1 -->
<svg width="813pt" height="404pt"
 viewBox="0.00 0.00 813.24 404.00" xmlns="http://www.w3.org/2000/svg" xmlns:xlink="http://www.w3.org/1999/xlink">
<g id="graph0" class="graph" transform="scale(1 1) rotate(0) translate(4 400)">
<title>%3</title>
<polygon fill="white" stroke="transparent" points="-4,4 -4,-400 809.24,-400 809.24,4 -4,4"/>
<!-- quickwit&#45;common -->
<g id="node1" class="node">
<title>quickwit&#45;common</title>
<ellipse fill="none" stroke="black" cx="476.2" cy="-162" rx="76.09" ry="18"/>
<text text-anchor="middle" x="476.2" y="-158.3" font-family="Times,serif" font-size="14.00">quickwit&#45;common</text>
</g>
<!-- quickwit&#45;storage -->
<g id="node2" class="node">
<title>quickwit&#45;storage</title>
<ellipse fill="none" stroke="black" cx="476.2" cy="-90" rx="69.59" ry="18"/>
<text text-anchor="middle" x="476.2" y="-86.3" font-family="Times,serif" font-size="14.00">quickwit&#45;storage</text>
</g>
<!-- quickwit&#45;common&#45;&gt;quickwit&#45;storage -->
<g id="edge1" class="edge">
<title>quickwit&#45;common&#45;&gt;quickwit&#45;storage</title>
<path fill="none" stroke="black" d="M470.29,-143.7C469.49,-135.98 469.26,-126.71 469.61,-118.11"/>
<polygon fill="black" stroke="black" points="473.1,-118.32 470.31,-108.1 466.12,-117.84 473.1,-118.32"/>
</g>
<!-- quickwit&#45;index&#45;config -->
<g id="node3" class="node">
<title>quickwit&#45;index&#45;config</title>
<ellipse fill="none" stroke="black" cx="151.2" cy="-90" rx="89.08" ry="18"/>
<text text-anchor="middle" x="151.2" y="-86.3" font-family="Times,serif" font-size="14.00">quickwit&#45;index&#45;config</text>
</g>
<!-- quickwit&#45;common&#45;&gt;quickwit&#45;index&#45;config -->
<g id="edge2" class="edge">
<title>quickwit&#45;common&#45;&gt;quickwit&#45;index&#45;config</title>
<path fill="none" stroke="black" d="M421.8,-149.28C366.26,-137.32 279.87,-118.71 219.7,-105.75"/>
<polygon fill="black" stroke="black" points="220.41,-102.33 209.9,-103.64 218.94,-109.17 220.41,-102.33"/>
</g>
<!-- quickwit&#45;storage&#45;&gt;quickwit&#45;common -->
<g id="edge5" class="edge">
<title>quickwit&#45;storage&#45;&gt;quickwit&#45;common</title>
<path fill="none" stroke="black" d="M482.1,-108.1C482.9,-115.79 483.14,-125.05 482.81,-133.67"/>
<polygon fill="black" stroke="black" points="479.31,-133.48 482.12,-143.7 486.29,-133.96 479.31,-133.48"/>
</g>
<!-- tantivy -->
<g id="node4" class="node">
<title>tantivy</title>
<ellipse fill="none" stroke="black" cx="405.2" cy="-18" rx="35.19" ry="18"/>
<text text-anchor="middle" x="405.2" y="-14.3" font-family="Times,serif" font-size="14.00">tantivy</text>
</g>
<!-- quickwit&#45;storage&#45;&gt;tantivy -->
<g id="edge4" class="edge">
<title>quickwit&#45;storage&#45;&gt;tantivy</title>
<path fill="none" stroke="black" d="M459.38,-72.41C450.1,-63.26 438.43,-51.76 428.31,-41.78"/>
<polygon fill="black" stroke="black" points="430.51,-39.04 420.93,-34.51 425.6,-44.02 430.51,-39.04"/>
</g>
<!-- quickwit&#45;index&#45;config&#45;&gt;tantivy -->
<g id="edge3" class="edge">
<title>quickwit&#45;index&#45;config&#45;&gt;tantivy</title>
<path fill="none" stroke="black" d="M201.69,-75.09C249.74,-61.84 321.09,-42.18 365.29,-30"/>
<polygon fill="black" stroke="black" points="366.39,-33.33 375.1,-27.3 364.53,-26.58 366.39,-33.33"/>
</g>
<!-- quickwit&#45;metastore -->
<g id="node5" class="node">
<title>quickwit&#45;metastore</title>
<ellipse fill="none" stroke="black" cx="151.2" cy="-162" rx="79.09" ry="18"/>
<text text-anchor="middle" x="151.2" y="-158.3" font-family="Times,serif" font-size="14.00">quickwit&#45;metastore</text>
</g>
<!-- quickwit&#45;metastore&#45;&gt;quickwit&#45;storage -->
<g id="edge6" class="edge">
<title>quickwit&#45;metastore&#45;&gt;quickwit&#45;storage</title>
<path fill="none" stroke="black" d="M206.7,-149.05C264.46,-136.61 354.68,-117.17 414.6,-104.27"/>
<polygon fill="black" stroke="black" points="415.65,-107.62 424.68,-102.1 414.17,-100.78 415.65,-107.62"/>
</g>
<!-- quickwit&#45;metastore&#45;&gt;quickwit&#45;index&#45;config -->
<g id="edge7" class="edge">
<title>quickwit&#45;metastore&#45;&gt;quickwit&#45;index&#45;config</title>
<path fill="none" stroke="black" d="M151.2,-143.7C151.2,-135.98 151.2,-126.71 151.2,-118.11"/>
<polygon fill="black" stroke="black" points="154.7,-118.1 151.2,-108.1 147.7,-118.1 154.7,-118.1"/>
</g>
<!-- quickwit&#45;core -->
<g id="node6" class="node">
<title>quickwit&#45;core</title>
<ellipse fill="none" stroke="black" cx="230.2" cy="-306" rx="59.59" ry="18"/>
<text text-anchor="middle" x="230.2" y="-302.3" font-family="Times,serif" font-size="14.00">quickwit&#45;core</text>
</g>
<!-- quickwit&#45;core&#45;&gt;quickwit&#45;common -->
<g id="edge13" class="edge">
<title>quickwit&#45;core&#45;&gt;quickwit&#45;common</title>
<path fill="none" stroke="black" d="M286.25,-299.51C325.95,-293.29 378.78,-280.06 417.2,-252 439.07,-236.03 455.2,-209.3 465.01,-189.29"/>
<polygon fill="black" stroke="black" points="468.25,-190.63 469.32,-180.09 461.91,-187.66 468.25,-190.63"/>
</g>
<!-- quickwit&#45;core&#45;&gt;quickwit&#45;storage -->
<g id="edge14" class="edge">
<title>quickwit&#45;core&#45;&gt;quickwit&#45;storage</title>
<path fill="none" stroke="black" d="M230.08,-287.74C230.76,-268.61 234.33,-237.6 249.2,-216 289.43,-157.56 366.22,-123.69 419.28,-106.29"/>
<polygon fill="black" stroke="black" points="420.42,-109.6 428.89,-103.23 418.3,-102.93 420.42,-109.6"/>
</g>
<!-- quickwit&#45;core&#45;&gt;quickwit&#45;index&#45;config -->
<g id="edge9" class="edge">
<title>quickwit&#45;core&#45;&gt;quickwit&#45;index&#45;config</title>
<path fill="none" stroke="black" d="M176.31,-297.93C142.12,-291.09 98.74,-277.76 68.2,-252 40.54,-228.67 38.9,-215.12 30.2,-180 26.36,-164.47 21.45,-157.39 30.2,-144 41.74,-126.35 60.6,-114.54 80.04,-106.65"/>
<polygon fill="black" stroke="black" points="81.45,-109.86 89.59,-103.09 79,-103.3 81.45,-109.86"/>
</g>
<!-- quickwit&#45;core&#45;&gt;tantivy -->
<g id="edge10" class="edge">
<title>quickwit&#45;core&#45;&gt;tantivy</title>
<path fill="none" stroke="black" d="M170.47,-304.31C127.46,-300.51 71.22,-288.22 37.2,-252 -17.78,-193.46 -10.4,-121.04 53.2,-72 100.42,-35.59 276.43,-23.96 360.26,-20.44"/>
<polygon fill="black" stroke="black" points="360.4,-23.93 370.25,-20.04 360.12,-16.94 360.4,-23.93"/>
</g>
<!-- quickwit&#45;core&#45;&gt;quickwit&#45;metastore -->
<g id="edge11" class="edge">
<title>quickwit&#45;core&#45;&gt;quickwit&#45;metastore</title>
<path fill="none" stroke="black" d="M210.26,-288.92C199.41,-279.24 186.55,-266.08 178.2,-252 166.84,-232.84 159.89,-208.49 155.89,-190.11"/>
<polygon fill="black" stroke="black" points="159.27,-189.17 153.86,-180.06 152.4,-190.55 159.27,-189.17"/>
</g>
<!-- quickwit&#45;directories -->
<g id="node7" class="node">
<title>quickwit&#45;directories</title>
<ellipse fill="none" stroke="black" cx="689.2" cy="-162" rx="81.49" ry="18"/>
<text text-anchor="middle" x="689.2" y="-158.3" font-family="Times,serif" font-size="14.00">quickwit&#45;directories</text>
</g>
<!-- quickwit&#45;core&#45;&gt;quickwit&#45;directories -->
<g id="edge8" class="edge">
<title>quickwit&#45;core&#45;&gt;quickwit&#45;directories</title>
<path fill="none" stroke="black" d="M278.03,-294.95C322.28,-285.26 389.71,-269.53 447.2,-252 516.3,-230.93 594.45,-201.05 642.78,-181.85"/>
<polygon fill="black" stroke="black" points="644.34,-185 652.33,-178.04 641.75,-178.5 644.34,-185"/>
</g>
<!-- quickwit&#45;indexing -->
<g id="node8" class="node">
<title>quickwit&#45;indexing</title>
<ellipse fill="none" stroke="black" cx="333.2" cy="-234" rx="75.29" ry="18"/>
<text text-anchor="middle" x="333.2" y="-230.3" font-family="Times,serif" font-size="14.00">quickwit&#45;indexing</text>
</g>
<!-- quickwit&#45;core&#45;&gt;quickwit&#45;indexing -->
<g id="edge12" class="edge">
<title>quickwit&#45;core&#45;&gt;quickwit&#45;indexing</title>
<path fill="none" stroke="black" d="M253.32,-289.29C267.43,-279.7 285.68,-267.3 301.17,-256.77"/>
<polygon fill="black" stroke="black" points="303.15,-259.66 309.45,-251.14 299.21,-253.87 303.15,-259.66"/>
</g>
<!-- quickwit&#45;directories&#45;&gt;quickwit&#45;storage -->
<g id="edge16" class="edge">
<title>quickwit&#45;directories&#45;&gt;quickwit&#45;storage</title>
<path fill="none" stroke="black" d="M645.84,-146.75C611.49,-135.46 563.41,-119.66 527.21,-107.76"/>
<polygon fill="black" stroke="black" points="527.93,-104.31 517.33,-104.52 525.74,-110.96 527.93,-104.31"/>
</g>
<!-- quickwit&#45;directories&#45;&gt;tantivy -->
<g id="edge15" class="edge">
<title>quickwit&#45;directories&#45;&gt;tantivy</title>
<path fill="none" stroke="black" d="M667.92,-144.45C642.3,-125.11 597.43,-93.08 555.2,-72 519.46,-54.16 476.22,-39.56 445.36,-30.23"/>
<polygon fill="black" stroke="black" points="445.99,-26.77 435.4,-27.27 443.99,-33.48 445.99,-26.77"/>
</g>
<!-- quickwit&#45;indexing&#45;&gt;quickwit&#45;common -->
<g id="edge21" class="edge">
<title>quickwit&#45;indexing&#45;&gt;quickwit&#45;common</title>
<path fill="none" stroke="black" d="M364.94,-217.46C385.67,-207.31 412.95,-193.96 435.31,-183.02"/>
<polygon fill="black" stroke="black" points="437.11,-186.03 444.55,-178.49 434.03,-179.74 437.11,-186.03"/>
</g>
<!-- quickwit&#45;indexing&#45;&gt;quickwit&#45;storage -->
<g id="edge22" class="edge">
<title>quickwit&#45;indexing&#45;&gt;quickwit&#45;storage</title>
<path fill="none" stroke="black" d="M341.38,-216.03C351.23,-196.86 369.21,-165.56 391.2,-144 404.16,-131.3 420.68,-120.15 435.7,-111.39"/>
<polygon fill="black" stroke="black" points="437.82,-114.21 444.81,-106.25 434.38,-108.11 437.82,-114.21"/>
</g>
<!-- quickwit&#45;indexing&#45;&gt;quickwit&#45;index&#45;config -->
<g id="edge18" class="edge">
<title>quickwit&#45;indexing&#45;&gt;quickwit&#45;index&#45;config</title>
<path fill="none" stroke="black" d="M317.53,-216.11C299.61,-197.3 268.9,-166.58 239.2,-144 224.01,-132.45 206.15,-121.3 190.49,-112.22"/>
<polygon fill="black" stroke="black" points="191.99,-109.05 181.57,-107.14 188.53,-115.13 191.99,-109.05"/>
</g>
<!-- quickwit&#45;indexing&#45;&gt;tantivy -->
<g id="edge19" class="edge">
<title>quickwit&#45;indexing&#45;&gt;tantivy</title>
<path fill="none" stroke="black" d="M338.12,-215.86C343.35,-197.87 351.97,-168.83 360.2,-144 371.55,-109.75 385.84,-70.68 395.23,-45.47"/>
<polygon fill="black" stroke="black" points="398.59,-46.48 398.81,-35.89 392.03,-44.03 398.59,-46.48"/>
</g>
<!-- quickwit&#45;indexing&#45;&gt;quickwit&#45;metastore -->
<g id="edge20" class="edge">
<title>quickwit&#45;indexing&#45;&gt;quickwit&#45;metastore</title>
<path fill="none" stroke="black" d="M295.05,-218.33C267.11,-207.58 229.01,-192.93 199.04,-181.4"/>
<polygon fill="black" stroke="black" points="200.21,-178.1 189.62,-177.78 197.69,-184.63 200.21,-178.1"/>
</g>
<!-- quickwit&#45;indexing&#45;&gt;quickwit&#45;directories -->
<g id="edge17" class="edge">
<title>quickwit&#45;indexing&#45;&gt;quickwit&#45;directories</title>
<path fill="none" stroke="black" d="M389.61,-221.91C452.27,-209.59 553.44,-189.7 620.62,-176.48"/>
<polygon fill="black" stroke="black" points="621.55,-179.87 630.69,-174.51 620.2,-173 621.55,-179.87"/>
</g>
<!-- quickwit&#45;search -->
<g id="node9" class="node">
<title>quickwit&#45;search</title>
<ellipse fill="none" stroke="black" cx="493.2" cy="-306" rx="66.89" ry="18"/>
<text text-anchor="middle" x="493.2" y="-302.3" font-family="Times,serif" font-size="14.00">quickwit&#45;search</text>
</g>
<!-- quickwit&#45;search&#45;&gt;quickwit&#45;common -->
<g id="edge29" class="edge">
<title>quickwit&#45;search&#45;&gt;quickwit&#45;common</title>
<path fill="none" stroke="black" d="M491.15,-287.87C488.25,-263.67 482.93,-219.21 479.48,-190.39"/>
<polygon fill="black" stroke="black" points="482.92,-189.7 478.26,-180.19 475.97,-190.53 482.92,-189.7"/>
</g>
<!-- quickwit&#45;search&#45;&gt;quickwit&#45;storage -->
<g id="edge30" class="edge">
<title>quickwit&#45;search&#45;&gt;quickwit&#45;storage</title>
<path fill="none" stroke="black" d="M510.01,-288.47C538.17,-258.68 589.18,-194.41 561.2,-144 552.96,-129.14 538.62,-117.9 524.05,-109.69"/>
<polygon fill="black" stroke="black" points="525.48,-106.49 514.99,-104.96 522.23,-112.69 525.48,-106.49"/>
</g>
<!-- quickwit&#45;search&#45;&gt;quickwit&#45;index&#45;config -->
<g id="edge25" class="edge">
<title>quickwit&#45;search&#45;&gt;quickwit&#45;index&#45;config</title>
<path fill="none" stroke="black" d="M430.3,-299.65C369.14,-293.1 274.32,-279.32 196.2,-252 132.75,-229.81 97.61,-237.75 63.2,-180 55.01,-166.25 55.33,-157.93 63.2,-144 71.34,-129.6 85.13,-118.68 99.41,-110.6"/>
<polygon fill="black" stroke="black" points="101.09,-113.68 108.32,-105.94 97.84,-107.47 101.09,-113.68"/>
</g>
<!-- quickwit&#45;search&#45;&gt;tantivy -->
<g id="edge26" class="edge">
<title>quickwit&#45;search&#45;&gt;tantivy</title>
<path fill="none" stroke="black" d="M553.38,-298.06C617.01,-289.7 712.15,-273.99 741.2,-252 781.78,-221.29 807.69,-186.16 779.2,-144 705.78,-35.33 532.83,-19.3 450.41,-18.12"/>
<polygon fill="black" stroke="black" points="450.37,-14.62 440.35,-18.04 450.32,-21.62 450.37,-14.62"/>
</g>
<!-- quickwit&#45;search&#45;&gt;quickwit&#45;metastore -->
<g id="edge27" class="edge">
<title>quickwit&#45;search&#45;&gt;quickwit&#45;metastore</title>
<path fill="none" stroke="black" d="M429.5,-300.29C378.39,-294.41 306.05,-281.28 249.2,-252 218.36,-236.11 189.81,-208.02 171.58,-187.63"/>
<polygon fill="black" stroke="black" points="174.1,-185.2 164.88,-179.97 168.83,-189.8 174.1,-185.2"/>
</g>
<!-- quickwit&#45;search&#45;&gt;quickwit&#45;directories -->
<g id="edge24" class="edge">
<title>quickwit&#45;search&#45;&gt;quickwit&#45;directories</title>
<path fill="none" stroke="black" d="M555.38,-299.28C616.19,-292.25 702.57,-277.93 723.2,-252 738.18,-233.17 725.16,-207 711.12,-187.92"/>
<polygon fill="black" stroke="black" points="713.82,-185.69 704.91,-179.95 708.3,-189.99 713.82,-185.69"/>
</g>
<!-- quickwit&#45;search&#45;&gt;quickwit&#45;indexing -->
<g id="edge28" class="edge">
<title>quickwit&#45;search&#45;&gt;quickwit&#45;indexing</title>
<path fill="none" stroke="black" d="M459.66,-290.33C435.67,-279.83 403.14,-265.6 377.08,-254.2"/>
<polygon fill="black" stroke="black" points="378.37,-250.94 367.8,-250.14 375.56,-257.35 378.37,-250.94"/>
</g>
<!-- quickwit&#45;cluster -->
<g id="node10" class="node">
<title>quickwit&#45;cluster</title>
<ellipse fill="none" stroke="black" cx="646.2" cy="-234" rx="67.69" ry="18"/>
<text text-anchor="middle" x="646.2" y="-230.3" font-family="Times,serif" font-size="14.00">quickwit&#45;cluster</text>
</g>
<!-- quickwit&#45;search&#45;&gt;quickwit&#45;cluster -->
<g id="edge23" class="edge">
<title>quickwit&#45;search&#45;&gt;quickwit&#45;cluster</title>
<path fill="none" stroke="black" d="M525.65,-290.15C548.67,-279.62 579.77,-265.39 604.62,-254.03"/>
<polygon fill="black" stroke="black" points="606.16,-257.17 613.8,-249.82 603.25,-250.8 606.16,-257.17"/>
</g>
<!-- quickwit&#45;cluster&#45;&gt;quickwit&#45;common -->
<g id="edge31" class="edge">
<title>quickwit&#45;cluster&#45;&gt;quickwit&#45;common</title>
<path fill="none" stroke="black" d="M610.98,-218.5C585.23,-207.89 550.07,-193.41 522.11,-181.9"/>
<polygon fill="black" stroke="black" points="523.13,-178.54 512.55,-177.97 520.47,-185.01 523.13,-178.54"/>
</g>
<!-- quickwit&#45;serve -->
<g id="node11" class="node">
<title>quickwit&#45;serve</title>
<ellipse fill="none" stroke="black" cx="493.2" cy="-378" rx="63.09" ry="18"/>
<text text-anchor="middle" x="493.2" y="-374.3" font-family="Times,serif" font-size="14.00">quickwit&#45;serve</text>
</g>
<!-- quickwit&#45;serve&#45;&gt;quickwit&#45;common -->
<g id="edge38" class="edge">
<title>quickwit&#45;serve&#45;&gt;quickwit&#45;common</title>
<path fill="none" stroke="black" d="M539.52,-365.67C622.41,-343.24 782.18,-288.97 723.2,-216 712.13,-202.3 617.74,-184.93 548.93,-173.89"/>
<polygon fill="black" stroke="black" points="549.4,-170.42 538.97,-172.31 548.3,-177.33 549.4,-170.42"/>
</g>
<!-- quickwit&#45;serve&#45;&gt;quickwit&#45;storage -->
<g id="edge39" class="edge">
<title>quickwit&#45;serve&#45;&gt;quickwit&#45;storage</title>
<path fill="none" stroke="black" d="M550.75,-370.51C612.72,-362.47 706.09,-346.96 733.2,-324 796.22,-270.64 832.32,-207.22 779.2,-144 751.07,-110.53 634.96,-98.19 554.93,-93.65"/>
<polygon fill="black" stroke="black" points="555.04,-90.15 544.87,-93.11 554.67,-97.14 555.04,-90.15"/>
</g>
<!-- quickwit&#45;serve&#45;&gt;quickwit&#45;index&#45;config -->
<g id="edge35" class="edge">
<title>quickwit&#45;serve&#45;&gt;quickwit&#45;index&#45;config</title>
<path fill="none" stroke="black" d="M430.17,-376.28C357.54,-373.49 235.8,-362.77 139.2,-324 87.7,-303.33 67.65,-298.39 37.2,-252 10.61,-211.48 -4.78,-184.25 22.2,-144 34.65,-125.42 54.91,-113.35 75.72,-105.51"/>
<polygon fill="black" stroke="black" points="76.99,-108.78 85.29,-102.2 74.7,-102.16 76.99,-108.78"/>
</g>
<!-- quickwit&#45;serve&#45;&gt;quickwit&#45;metastore -->
<g id="edge36" class="edge">
<title>quickwit&#45;serve&#45;&gt;quickwit&#45;metastore</title>
<path fill="none" stroke="black" d="M430.33,-375.98C344.23,-373.15 196.27,-362.62 161.2,-324 128.27,-287.74 135.67,-225.87 143.66,-190.31"/>
<polygon fill="black" stroke="black" points="147.17,-190.73 146.12,-180.18 140.36,-189.08 147.17,-190.73"/>
</g>
<!-- quickwit&#45;serve&#45;&gt;quickwit&#45;core -->
<g id="edge34" class="edge">
<title>quickwit&#45;serve&#45;&gt;quickwit&#45;core</title>
<path fill="none" stroke="black" d="M448.59,-365.13C402.93,-352.97 331.98,-334.09 283.42,-321.17"/>
<polygon fill="black" stroke="black" points="284.28,-317.77 273.72,-318.58 282.48,-324.54 284.28,-317.77"/>
</g>
<!-- quickwit&#45;serve&#45;&gt;quickwit&#45;directories -->
<g id="edge33" class="edge">
<title>quickwit&#45;serve&#45;&gt;quickwit&#45;directories</title>
<path fill="none" stroke="black" d="M554.59,-373.46C598.78,-368.19 657.84,-355.31 700.2,-324 741.88,-293.19 764.48,-263.7 744.2,-216 739.3,-204.46 730.52,-194.22 721.39,-185.89"/>
<polygon fill="black" stroke="black" points="723.6,-183.17 713.72,-179.35 719.06,-188.5 723.6,-183.17"/>
</g>
<!-- quickwit&#45;serve&#45;&gt;quickwit&#45;indexing -->
<g id="edge37" class="edge">
<title>quickwit&#45;serve&#45;&gt;quickwit&#45;indexing</title>
<path fill="none" stroke="black" d="M467.95,-361.27C452.69,-351.32 433.16,-337.76 417.2,-324 393.94,-303.94 370.15,-278.14 353.86,-259.49"/>
<polygon fill="black" stroke="black" points="356.33,-257 347.14,-251.73 351.04,-261.58 356.33,-257"/>
</g>
<!-- quickwit&#45;serve&#45;&gt;quickwit&#45;search -->
<g id="edge40" class="edge">
<title>quickwit&#45;serve&#45;&gt;quickwit&#45;search</title>
<path fill="none" stroke="black" d="M493.2,-359.7C493.2,-351.98 493.2,-342.71 493.2,-334.11"/>
<polygon fill="black" stroke="black" points="496.7,-334.1 493.2,-324.1 489.7,-334.1 496.7,-334.1"/>
</g>
<!-- quickwit&#45;serve&#45;&gt;quickwit&#45;cluster -->
<g id="edge32" class="edge">
<title>quickwit&#45;serve&#45;&gt;quickwit&#45;cluster</title>
<path fill="none" stroke="black" d="M518.67,-361.52C534.01,-351.65 553.55,-338.1 569.2,-324 591.05,-304.31 612.68,-278.63 627.42,-259.91"/>
<polygon fill="black" stroke="black" points="630.31,-261.89 633.69,-251.85 624.79,-257.6 630.31,-261.89"/>
</g>
</g>
</svg>
