<?xml version="1.0" encoding="UTF-8"?>
<svg width="341px" height="338px" viewBox="0 0 341 338" version="1.1" xmlns="http://www.w3.org/2000/svg" xmlns:xlink="http://www.w3.org/1999/xlink">
    <title>icone_red</title>
    <g id="Page-1" stroke="none" stroke-width="1" fill="current" fill-rule="evenodd">
        <g id="icone_red" fill="current">
            <polygon id="Fill-105" points="74.9395352 38.09713 181.972327 115.851749 209.65709 77.7546186 102.624297 6.06321109e-14"></polygon>
            <polygon id="Fill-106" points="12.1867572 156.581984 139.979464 122.341865 127.78783 76.8574124 1.81916215e-13 111.092655"></polygon>
            <polygon id="Fill-107" points="64.8546157 279.553844 118.663611 158.707972 75.6417733 139.549695 21.8279013 260.399467"></polygon>
            <polygon id="Fill-108" points="193.417833 316.620162 133.352092 198.755551 91.3933643 220.135876 151.45423 338"></polygon>
            <polygon id="Fill-109" points="302.669503 239.04596 173.262624 211.542689 163.470304 257.604962 292.877183 285.108233"></polygon>
            <polygon id="Fill-110" points="311.3597 105.333957 208.545213 188.584451 238.180636 225.181198 341 141.929241"></polygon>
            <polygon id="Fill-111" points="209.871662 148.960607 256.968432 148.960607 256.968432 16.6763323 209.871662 16.6763323"></polygon>
        </g>
    </g>
</svg>