<?xml version="1.0" encoding="UTF-8" standalone="no"?>
<!-- Created with Inkscape (http://www.inkscape.org/) -->

<svg
   width="202.74915mm"
   height="174.58154mm"
   viewBox="0 0 202.74914 174.58154"
   version="1.1"
   id="svg5"
   inkscape:version="1.1.1 (c3084ef, 2021-09-22)"
   sodipodi:docname="quickwit-architecture.svg"
   inkscape:export-filename="/Users/fmassot/Documents/quickwit/doc/quickwit-architecture.png"
   inkscape:export-xdpi="96"
   inkscape:export-ydpi="96"
   xmlns:inkscape="http://www.inkscape.org/namespaces/inkscape"
   xmlns:sodipodi="http://sodipodi.sourceforge.net/DTD/sodipodi-0.dtd"
   xmlns="http://www.w3.org/2000/svg"
   xmlns:svg="http://www.w3.org/2000/svg">
  <sodipodi:namedview
     id="namedview7"
     pagecolor="#ffffff"
     bordercolor="#cccccc"
     borderopacity="1"
     inkscape:pageshadow="0"
     inkscape:pageopacity="1"
     inkscape:pagecheckerboard="0"
     inkscape:document-units="mm"
     showgrid="false"
     inkscape:zoom="1.0074671"
     inkscape:cx="322.59119"
     inkscape:cy="355.8429"
     inkscape:window-width="1919"
     inkscape:window-height="969"
     inkscape:window-x="0"
     inkscape:window-y="25"
     inkscape:window-maximized="0"
     inkscape:current-layer="quickwit-sketch"
     inkscape:snap-text-baseline="false" />
  <defs
     id="defs2">
    <marker
       style="overflow:visible"
       id="Arrow1Lend"
       refX="0"
       refY="0"
       orient="auto"
       inkscape:stockid="Arrow1Lend"
       inkscape:isstock="true">
      <path
         transform="matrix(-0.8,0,0,-0.8,-10,0)"
         style="fill:context-stroke;fill-rule:evenodd;stroke:context-stroke;stroke-width:1pt"
         d="M 0,0 5,-5 -12.5,0 5,5 Z"
         id="path38184" />
    </marker>
    <marker
       style="overflow:visible"
       id="TriangleOutL"
       refX="0"
       refY="0"
       orient="auto"
       inkscape:stockid="TriangleOutL"
       inkscape:isstock="true">
      <path
         transform="scale(0.8)"
         style="fill:context-stroke;fill-rule:evenodd;stroke:context-stroke;stroke-width:1pt"
         d="M 5.77,0 -2.88,5 V -5 Z"
         id="path38323" />
    </marker>
    <marker
       style="overflow:visible"
       id="Arrow1Lstart"
       refX="0"
       refY="0"
       orient="auto"
       inkscape:stockid="Arrow1Lstart"
       inkscape:isstock="true">
      <path
         transform="matrix(0.8,0,0,0.8,10,0)"
         style="fill:context-stroke;fill-rule:evenodd;stroke:context-stroke;stroke-width:1pt"
         d="M 0,0 5,-5 -12.5,0 5,5 Z"
         id="path38181" />
    </marker>
  </defs>
  <g
     inkscape:label="Calque 1"
     inkscape:groupmode="layer"
     id="layer1"
     transform="translate(-2.3331769,-24.815219)">
    <g
       id="quickwit-sketch"
       transform="matrix(0.43351223,0,0,0.40487346,7.0535935,4.4662655)"
       style="fill:none;fill-rule:evenodd;stroke:none;stroke-width:1">
      <path
         d="m 370.31713,159.04899 h 60.70018 c 3.42077,0 6.19385,2.77308 6.19385,6.19385 v 33.4468 c 0,3.42077 -2.77308,6.19385 -6.19385,6.19385 h -7.26239 v 0 h -20.89844 -32.53935 c -3.42077,0 -6.19385,-2.77308 -6.19385,-6.19385 v -33.4468 c 0,-3.42077 2.77308,-6.19385 6.19385,-6.19385 z"
         id="path239"
         fill="#eaedf1"
         fill-rule="nonzero" />
      <rect
         id="rect241"
         fill="#eaedf1"
         fill-rule="nonzero"
         x="21.798044"
         y="351.67227"
         width="6.1938906"
         height="28.491699"
         rx="3.09692" />
      <rect
         id="rect243"
         fill="#eaedf1"
         fill-rule="nonzero"
         x="36.663342"
         y="351.67227"
         width="6.1938906"
         height="28.491699"
         rx="3.09692" />
      <rect
         id="rect245"
         fill="#eaedf1"
         fill-rule="nonzero"
         x="51.528641"
         y="351.67227"
         width="6.1938906"
         height="28.491699"
         rx="3.09692" />
      <rect
         id="rect247"
         fill="#eaedf1"
         fill-rule="nonzero"
         x="66.394035"
         y="351.67227"
         width="6.1938906"
         height="28.491699"
         rx="3.09692" />
      <rect
         id="rect249"
         fill="#eaedf1"
         fill-rule="nonzero"
         x="81.259338"
         y="351.67227"
         width="6.1938906"
         height="28.491699"
         rx="3.09692" />
      <rect
         id="rect251"
         fill="#eaedf1"
         fill-rule="nonzero"
         x="96.124634"
         y="351.67227"
         width="6.1938906"
         height="28.491699"
         rx="3.09692" />
      <rect
         id="rect253"
         fill="#eaedf1"
         fill-rule="nonzero"
         x="110.98973"
         y="351.67227"
         width="6.1938906"
         height="28.491699"
         rx="3.09692" />
      <rect
         id="rect255"
         fill="#eaedf1"
         fill-rule="nonzero"
         x="125.85483"
         y="351.67227"
         width="6.1938906"
         height="28.491699"
         rx="3.09692" />
      <rect
         id="rect257"
         fill="#eaedf1"
         fill-rule="nonzero"
         x="140.72093"
         y="351.67227"
         width="6.1938906"
         height="28.491699"
         rx="3.09692" />
      <rect
         id="rect259"
         fill="#eaedf1"
         fill-rule="nonzero"
         x="155.58603"
         y="351.67227"
         width="6.1938906"
         height="28.491699"
         rx="3.09692" />
      <rect
         id="rect261"
         fill="#eaedf1"
         fill-rule="nonzero"
         x="170.45212"
         y="351.67227"
         width="6.1938906"
         height="28.491699"
         rx="3.09692" />
      <rect
         id="rect263"
         fill="#eaedf1"
         fill-rule="nonzero"
         x="185.31622"
         y="351.67227"
         width="6.1938906"
         height="28.491699"
         rx="3.09692" />
      <rect
         id="rect265"
         fill="#eaedf1"
         fill-rule="nonzero"
         x="200.18231"
         y="351.67227"
         width="6.1938906"
         height="28.491699"
         rx="3.09692" />
      <rect
         id="rect267"
         fill="#eaedf1"
         fill-rule="nonzero"
         x="215.04742"
         y="351.67227"
         width="6.1938906"
         height="28.491699"
         rx="3.09692" />
      <rect
         id="rect269"
         fill="#eaedf1"
         fill-rule="nonzero"
         x="229.91252"
         y="351.67227"
         width="6.1938906"
         height="28.491699"
         rx="3.09692" />
      <rect
         id="rect271"
         fill="#16d18e"
         fill-rule="nonzero"
         x="244.77762"
         y="351.67227"
         width="6.1938906"
         height="28.491699"
         rx="3.09692" />
      <rect
         id="rect273"
         fill="#16d18e"
         fill-rule="nonzero"
         x="259.64371"
         y="351.67227"
         width="6.1938906"
         height="28.491699"
         rx="3.09692" />
      <path
         d="m 246.37562,396.69159 c 1.25701,0 1.97702,-1.075 1.97702,-2.359 0,-1.292 -0.72001,-2.358 -1.97702,-2.358 -0.633,0 -1.136,0.303 -1.40501,0.746 v -0.659 h -0.781 v 6.096 h 0.781 v -2.22 c 0.26901,0.451 0.77201,0.754 1.40501,0.754 z m -1.42201,-2.515 c 0,-1.057 0.64101,-1.517 1.28301,-1.517 0.85001,0 1.32701,0.694 1.32701,1.673 0,0.972 -0.477,1.674 -1.32701,1.674 -0.642,0 -1.28301,-0.468 -1.28301,-1.509 z m 5.64204,-3.841 c -0.06,0.72 -0.303,0.971 -1.04001,1.023 l -0.668,0.044 v 0.615 h 1.5 v 4.579 h 0.83301 v -6.261 z m 9.67606,6.356 c 1.25701,0 1.97702,-1.075 1.97702,-2.359 0,-1.292 -0.72001,-2.358 -1.97702,-2.358 -0.633,0 -1.136,0.303 -1.405,0.746 v -0.659 h -0.78001 v 6.096 h 0.78001 v -2.22 c 0.269,0.451 0.772,0.754 1.405,0.754 z m -1.42201,-2.515 c 0,-1.057 0.64101,-1.517 1.28301,-1.517 0.85001,0 1.32701,0.694 1.32701,1.673 0,0.972 -0.477,1.674 -1.32701,1.674 -0.642,0 -1.28301,-0.468 -1.28301,-1.509 z m 4.03003,1.735 v 0.685 h 4.28303 v -0.729 h -3.14702 l 1.40501,-1.144 c 0.893,-0.72 1.62101,-1.448 1.62101,-2.506 0,-1.145 -0.79801,-1.943 -2.05501,-1.943 -1.14501,0 -2.05502,0.841 -2.05502,1.951 0,0.243 0.043,0.451 0.139,0.72 h 0.78001 c -0.087,-0.217 -0.139,-0.451 -0.139,-0.676 0,-0.711 0.512,-1.284 1.25801,-1.284 0.763,0 1.257,0.521 1.257,1.284 0,0.815 -0.659,1.413 -1.50901,2.116 z m 12.87209,0.78 c 1.257,0 1.97701,-1.075 1.97701,-2.359 0,-1.292 -0.72001,-2.358 -1.97701,-2.358 -0.63301,0 -1.13601,0.303 -1.40501,0.746 v -0.659 h -0.78101 v 6.096 h 0.78101 v -2.22 c 0.269,0.451 0.772,0.754 1.40501,0.754 z m -1.42201,-2.515 c 0,-1.057 0.641,-1.517 1.28301,-1.517 0.85,0 1.327,0.694 1.327,1.673 0,0.972 -0.477,1.674 -1.327,1.674 -0.64201,0 -1.28301,-0.468 -1.28301,-1.509 z m 6.25804,2.515 c 1.29201,0 2.13301,-0.815 2.13301,-1.838 0,-0.859 -0.537,-1.336 -1.16201,-1.509 0.52901,-0.173 0.96301,-0.694 0.96301,-1.37 0,-0.989 -0.703,-1.7 -1.91701,-1.7 -1.19601,0 -2.00302,0.789 -2.16702,1.83 l 0.74501,0.147 c 0.139,-0.78 0.659,-1.274 1.40501,-1.274 0.711,0 1.15301,0.399 1.15301,1.04 0,0.625 -0.48501,0.989 -1.20501,0.989 h -0.67601 v 0.702 h 0.66701 c 0.79,0 1.38801,0.364 1.38801,1.101 0,0.737 -0.54601,1.188 -1.33601,1.188 -0.78001,0 -1.39601,-0.503 -1.51701,-1.37 l -0.80601,0.174 c 0.199,1.24 1.14401,1.89 2.33202,1.89 z"
         id="path275"
         fill="#000000"
         fill-rule="nonzero"
         opacity="0.7" />
      <polyline
         id="Path"
         stroke="#000000"
         stroke-width="1.23877"
         points="239.203576 325.338 239.203576 330.913 285.657882 330.913 285.657882 325.338"
         transform="translate(0,53.586711)" />
      <rect
         id="rect278"
         fill="#16d18e"
         fill-rule="nonzero"
         x="274.50882"
         y="351.67227"
         width="6.1938906"
         height="28.491699"
         rx="3.09692" />
      <rect
         id="rect280"
         fill="#eaedf1"
         fill-rule="nonzero"
         x="289.3739"
         y="351.67227"
         width="6.1938906"
         height="28.491699"
         rx="3.09692" />
      <rect
         id="rect282"
         fill="#eaedf1"
         fill-rule="nonzero"
         x="304.23901"
         y="351.67227"
         width="6.1938906"
         height="28.491699"
         rx="3.09692" />
      <rect
         id="rect284"
         fill="#eaedf1"
         fill-rule="nonzero"
         x="319.1051"
         y="351.67227"
         width="6.1938906"
         height="28.491699"
         rx="3.09692" />
      <rect
         id="rect286"
         fill="#eaedf1"
         fill-rule="nonzero"
         x="333.97021"
         y="351.67227"
         width="6.1938906"
         height="28.491699"
         rx="3.09692" />
      <rect
         id="rect288"
         fill="#eaedf1"
         fill-rule="nonzero"
         x="348.8353"
         y="351.67227"
         width="6.1938906"
         height="28.491699"
         rx="3.09692" />
      <rect
         id="rect290"
         fill="#eaedf1"
         fill-rule="nonzero"
         x="363.70041"
         y="351.67227"
         width="6.1938906"
         height="28.491699"
         rx="3.09692" />
      <rect
         id="rect292"
         fill="#eaedf1"
         fill-rule="nonzero"
         x="378.56549"
         y="351.67227"
         width="6.1938906"
         height="28.491699"
         rx="3.09692" />
      <rect
         id="rect294"
         fill="#eaedf1"
         fill-rule="nonzero"
         x="393.43158"
         y="351.67227"
         width="6.1938906"
         height="28.491699"
         rx="3.09692" />
      <rect
         id="rect296"
         fill="#eaedf1"
         fill-rule="nonzero"
         x="408.29669"
         y="351.67227"
         width="6.1938906"
         height="28.491699"
         rx="3.09692" />
      <rect
         id="rect298"
         fill="#eaedf1"
         fill-rule="nonzero"
         x="423.16177"
         y="351.67227"
         width="6.1938906"
         height="28.491699"
         rx="3.09692" />
      <path
         d="m 83.942567,328.50224 c 0.424903,0.841 1.45681,1.379 2.532017,1.379 1.231408,0 2.263315,-0.737 2.263315,-1.899 0,-1.318 -1.136008,-1.535 -2.167914,-1.778 -0.875806,-0.208 -1.45681,-0.347 -1.45681,-1.006 0,-0.598 0.546304,-1.014 1.300709,-1.014 0.806505,0 1.300808,0.407 1.62161,1.006 l 0.633004,-0.503 c -0.372902,-0.703 -1.153307,-1.223 -2.237214,-1.223 -1.179308,0 -2.124514,0.711 -2.124514,1.804 0,1.17 0.971206,1.439 1.951113,1.673 0.945106,0.226 1.66491,0.356 1.66491,1.11 0,0.711 -0.624404,1.11 -1.430809,1.11 -0.806405,0 -1.50881,-0.433 -1.899012,-1.179 z m 7.57805,1.379 c 1.292109,0 2.133214,-0.815 2.133214,-1.838 0,-0.859 -0.537603,-1.336 -1.162007,-1.509 0.529003,-0.174 0.962606,-0.694 0.962606,-1.37 0,-0.989 -0.702405,-1.7 -1.916413,-1.7 -1.196708,0 -2.003113,0.789 -2.167914,1.83 l 0.745805,0.147 c 0.138701,-0.78 0.659004,-1.275 1.404709,-1.275 0.711105,0 1.153308,0.399 1.153308,1.041 0,0.624 -0.485603,0.989 -1.205308,0.989 h -0.676305 v 0.702 h 0.667605 c 0.789105,0 1.387509,0.364 1.387509,1.101 0,0.737 -0.546304,1.188 -1.335409,1.188 -0.780405,0 -1.396109,-0.503 -1.51751,-1.37 l -0.806505,0.174 c 0.199501,1.24 1.144707,1.89 2.332615,1.89 z m 2.754818,-0.096 h 0.451003 v 0.07 c 0,0.416 -0.199501,0.616 -0.589703,0.633 v 0.451 c 0.693704,-0.018 1.127307,-0.425 1.127307,-1.101 v -1.076 h -0.988607 z m 7.323855,0 1.90771,-5.124 v 5.124 h 0.7718 v -6.226 h -1.1013 l -1.89902,5.117 -1.890411,-5.117 h -1.135907 v 6.226 h 0.780405 v -5.124 l 1.899013,5.124 z m 3.98472,-5.324 h 0.84981 v -0.902 h -0.84981 z m 0.81511,0.789 h -0.78041 v 4.535 h 0.78041 z m 1.30271,4.535 h 0.7805 v -2.705 c 0,-0.754 0.57231,-1.188 1.13591,-1.188 0.6764,0 0.94521,0.477 0.94521,1.11 v 2.783 h 0.7804 v -2.991 c 0,-0.963 -0.5463,-1.63 -1.50881,-1.63 -0.6417,0 -1.09261,0.329 -1.35271,0.702 v -0.616 h -0.7805 z m 5.76184,-6.226 h -0.83251 v 6.226 h 0.83251 z m 1.005,3.113 c 0,1.899 1.19671,3.209 2.82692,3.209 1.63021,0 2.81852,-1.31 2.81852,-3.209 0,-1.899 -1.18831,-3.208 -2.81852,-3.208 -1.63021,0 -2.82692,1.309 -2.82692,3.208 z m 4.82133,0 c 0,1.475 -0.8238,2.472 -1.99441,2.472 -1.17061,0 -1.99441,-0.997 -1.99441,-2.472 0,-1.474 0.8238,-2.471 1.99441,-2.471 1.17061,0 1.99441,0.997 1.99441,2.471 z m 1.16911,3.113 h 0.45101 v 0.07 c 0,0.416 -0.19901,0.616 -0.59001,0.633 v 0.451 c 0.69401,-0.018 1.12801,-0.425 1.12801,-1.101 v -1.076 h -0.98901 z m 8.14806,-6.226 v 2.645 h -3.33903 v -2.645 h -0.832 v 6.226 h 0.832 v -2.852 h 3.33903 v 2.852 h 0.832 v -6.226 z m 2.20501,6.226 h 1.97701 c 1.89102,0 3.08702,-1.214 3.08702,-3.113 0,-1.899 -1.196,-3.113 -3.08702,-3.113 h -1.97701 z m 0.815,-0.719 v -4.787 h 1.15401 c 1.42201,0 2.28002,0.937 2.28002,2.393 0,1.449 -0.85801,2.394 -2.27202,2.394 z m 6.08905,0.719 v -2.766 h 2.70601 v -0.728 h -2.70601 v -2.003 h 3.20002 v -0.729 h -4.02403 v 6.226 z m 3.40402,-1.283 c 0.425,0.841 1.45601,1.379 2.53202,1.379 1.231,0 2.26301,-0.737 2.26301,-1.899 0,-1.318 -1.13601,-1.535 -2.16802,-1.778 -0.876,-0.208 -1.457,-0.347 -1.457,-1.006 0,-0.598 0.547,-1.014 1.301,-1.014 0.80601,0 1.30101,0.407 1.62201,1.006 l 0.63301,-0.503 c -0.373,-0.703 -1.15401,-1.223 -2.23802,-1.223 -1.179,0 -2.12401,0.711 -2.12401,1.804 0,1.17 0.97101,1.439 1.95101,1.673 0.94501,0.226 1.66501,0.356 1.66501,1.11 0,0.711 -0.625,1.11 -1.43101,1.11 -0.806,0 -1.509,-0.433 -1.89901,-1.179 z m 5.46303,1.283 h 0.45101 v 0.07 c 0,0.416 -0.199,0.616 -0.58901,0.633 v 0.451 c 0.69301,-0.018 1.12701,-0.425 1.12701,-1.101 v -1.076 h -0.98901 z m 3.76003,0 h 0.989 v -1.023 h -0.989 z m 1.93101,0 h 0.98801 v -1.023 h -0.98801 z m 1.93101,0 h 0.98801 v -1.023 h -0.98801 z"
         id="path306"
         fill="#000000"
         fill-rule="nonzero"
         opacity="0.6" />
      <rect
         id="rect308"
         fill="#16d18e"
         fill-rule="nonzero"
         x="10.64847"
         y="443.05829"
         width="6.1938906"
         height="16.104"
         rx="3.09692" />
      <rect
         id="rect310"
         fill="#eaedf1"
         fill-rule="nonzero"
         x="10.64847"
         y="465.35629"
         width="6.1938906"
         height="16.104"
         rx="3.09692" />
      <rect
         id="rect324"
         stroke="#d7d7d7"
         x="2.8421709e-14"
         y="308.81528"
         width="454.87"
         height="118.399"
         rx="5.69385" />
      <rect
         id="rect326"
         stroke="#d7d7d7"
         x="183.45479"
         y="148.79922"
         width="72"
         height="132.85005"
         rx="3.5648212"
         style="stroke-width:0.894292" />
      <path
         id="path332"
         d="m 126.96026,112.37974 c 0.006,-0.0507 0.0119,0.0191 0.0139,0.15595 5.9e-4,0.0385 8e-4,0.0797 6.1e-4,0.12045 v 0 l -0.0195,4.33388 c -6.5e-4,0.14501 -0.006,0.24971 -0.012,0.23384 -0.002,-0.006 -0.005,-0.0307 -0.006,-0.0697 v 0 l -0.13075,-2.97955 c -0.004,-0.0997 -0.005,-0.26683 -5e-4,-0.37332 10e-4,-0.0299 0.003,-0.0529 0.004,-0.0672 v 0 z m -0.0733,0.0913 0.007,0.46135 -0.019,0.17087 -0.007,-0.46135 z m -0.014,-0.92269 0.007,0.46134 -0.019,0.17087 -0.007,-0.46134 z m -0.014,-0.9227 0.007,0.46135 -0.019,0.17087 -0.007,-0.46135 z m -0.014,-0.9227 0.007,0.46135 -0.019,0.17087 -0.007,-0.46135 z m -0.014,-0.92269 0.007,0.46134 -0.019,0.17088 -0.007,-0.46135 z m -0.014,-0.9227 0.007,0.46135 -0.019,0.17087 -0.007,-0.46135 z m -0.014,-0.92269 0.007,0.46134 -0.0189,0.17087 -0.007,-0.46135 z m -0.014,-0.9227 0.007,0.46135 -0.019,0.17086 -0.007,-0.46134 z m -0.014,-0.9227 0.007,0.46135 -0.019,0.17087 -0.007,-0.46135 z m -0.014,-0.92269 0.007,0.46134 -0.019,0.17087 -0.007,-0.46134 z m -0.014,-0.9227 0.007,0.46135 -0.019,0.17087 -0.007,-0.46135 z m -0.014,-0.9227 0.007,0.46135 -0.0189,0.17087 -0.007,-0.46134 z m -0.014,-0.92269 0.007,0.46134 -0.019,0.17088 -0.007,-0.46135 z m -0.014,-0.9227 0.007,0.46135 -0.019,0.17087 -0.007,-0.46135 z m -0.014,-0.922694 0.007,0.461344 -0.019,0.17087 -0.007,-0.461346 z m -0.014,-0.922697 0.007,0.461348 -0.0189,0.170868 -0.007,-0.461349 z m -0.014,-0.922698 0.007,0.461349 -0.019,0.170872 -0.007,-0.461348 z m -0.014,-0.922692 0.007,0.461343 -0.019,0.170873 -0.007,-0.461349 z m -0.014,-0.922698 0.007,0.461349 -0.0189,0.170867 -0.007,-0.461348 z m -0.014,-0.922697 0.007,0.461349 -0.019,0.170867 -0.007,-0.461344 z m -0.014,-0.922696 0.007,0.461348 -0.019,0.17087 -0.007,-0.461349 z m -0.014,-0.922697 0.007,0.461349 -0.019,0.170869 -0.007,-0.461348 z m -0.014,-0.922696 0.007,0.461349 -0.0189,0.170869 -0.007,-0.461348 z m -0.014,-0.922696 0.007,0.461348 -0.019,0.17087 -0.007,-0.461348 z m -0.014,-0.922696 0.007,0.461348 -0.019,0.17087 -0.007,-0.461349 z"
         fill="#979797"
         fill-rule="nonzero"
         style="stroke-width:0.0997144" />
      <path
         id="path334"
         d="m 313.99032,301.16728 v 0.64522 h 3.46314 c 0.26685,0 0.48823,0.25124 0.52983,0.58041 l 0.007,0.11236 c 0,0.10754 -0.0194,0.21361 -0.0567,0.30982 v 0 l -3.96308,10.22824 c -0.1326,0.34224 -0.45508,0.48094 -0.72027,0.30983 -0.1039,-0.0669 -0.18815,-0.17575 -0.24009,-0.30983 v 0 l -3.96309,-10.22824 c -0.13259,-0.34223 -0.0251,-0.75835 0.2401,-0.92946 0.0745,-0.0481 0.15674,-0.0732 0.24009,-0.0732 v 0 h 3.46307 v -0.64522 z m 0,-2.58089 v 1.29045 h -1 v -1.29045 z m 0,-2.58087 v 1.29044 h -1 v -1.29044 z m 0,-2.58089 v 1.29044 h -1 v -1.29044 z m 0,-2.58088 v 1.29043 h -1 v -1.29043 z m 0,-2.58089 v 1.29045 h -1 v -1.29045 z m 0,-2.58087 v 1.29043 h -1 v -1.29043 z m 0,-2.58089 v 1.29044 h -1 v -1.29044 z m 0,-2.58089 v 1.29044 h -1 v -1.29044 z m 0,-2.58088 v 1.29045 h -1 v -1.29045 z m 0,-2.58088 v 1.29044 h -1 v -1.29044 z m 0,-2.58088 v 1.29043 h -1 v -1.29043 z m 0,-2.58089 v 1.29044 h -1 v -1.29044 z"
         fill="#979797"
         fill-rule="nonzero"
         style="stroke-width:1.13598" />
      <path
         id="path336"
         d="m 331.86733,311.79066 v 1.18533 h -1 v -1.18533 z m 0,-2.37066 v 1.18533 h -1 V 309.42 Z m 0,-2.37066 v 1.18533 h -1 v -1.18533 z m 0,-2.37066 v 1.18533 h -1 v -1.18533 z m 0,-2.37065 v 1.18532 h -1 v -1.18532 z m 0,-2.37066 v 1.18533 h -1 v -1.18533 z m 0,-2.37066 v 1.18533 h -1 v -1.18533 z m 0,-2.37066 v 1.18533 h -1 v -1.18533 z m 0,-2.37066 v 1.18533 h -1 v -1.18533 z m 0,-2.37066 v 1.18533 h -1 v -1.18533 z m 0,-2.37066 v 1.18533 h -1 v -1.18533 z m 0,-2.37066 v 1.18533 h -1 v -1.18533 z m 0,-2.37065 v 1.18532 h -1 v -1.18532 z m 0,-2.37066 v 1.18533 h -1 v -1.18533 z m 0,-2.37066 v 1.18533 h -1 v -1.18533 z m -0.98024,-10.90872 c 0.1326,-0.31435 0.45508,-0.44176 0.72027,-0.2846 0.1039,0.0616 0.18814,0.16145 0.24009,0.2846 v 0 l 3.96308,9.39511 c 0.1326,0.31435 0.0251,0.69658 -0.24009,0.85376 -0.0745,0.0442 -0.15674,0.0672 -0.24009,0.0672 v 0 h -7.92616 c -0.2965,0 -0.53686,-0.28491 -0.53686,-0.63636 0,-0.0987 0.0194,-0.19623 0.0567,-0.28458 v 0 z"
         fill="#979797"
         fill-rule="nonzero"
         style="stroke-width:1.08873" />
      <text
         id="Time-pruned-splits"
         font-family="Helvetica"
         font-size="7px"
         font-weight="normal"
         fill="#000000"
         y="53.586689"><tspan
           x="237.5"
           y="412.58728"
           id="tspan340">Time pruned splits</tspan></text>
      <text
         id="Returns-splits-addre"
         font-family="Helvetica"
         font-size="7px"
         font-weight="normal"
         fill="#000000"
         x="-164.29335"
         y="-14.044231"
         style="font-size:8.42056px"><tspan
           sodipodi:role="line"
           id="tspan23900"
           x="194.20667"
           y="191.95576"
           style="font-weight:normal"><tspan
             x="194.20667"
             y="191.95576"
             id="tspan343"
             style="font-weight:normal;font-size:8.42056px">Time pruning</tspan></tspan></text>
      <path
         id="path350"
         d="m 355.06753,145.81595 0.98667,-0.0442 -0.0113,1.014 -0.98666,0.0442 z m 0.0235,-2.02805 0.98667,-0.0442 -0.0113,1.01402 -0.98668,0.0442 z m 0.0235,-2.02802 0.98666,-0.0442 -0.0113,1.014 -0.98669,0.0442 z m 0.0235,-2.02804 0.98669,-0.0442 -0.0113,1.014 -0.98668,0.0442 z m 0.0235,-2.02801 0.98667,-0.0442 -0.0113,1.01401 -0.98666,0.0442 z m 0.0235,-2.02803 0.98668,-0.0442 -0.0113,1.01403 -0.98669,0.0442 z m 0.0235,-2.02803 0.98669,-0.0442 -0.0113,1.01398 -0.9867,0.0442 z m 0.0235,-2.02802 0.9867,-0.0442 -0.0113,1.01403 -0.98667,0.0442 z m 0.0225,-2.02804 0.9867,-0.0442 -0.0113,1.01401 -0.98671,0.0442 z m 0.0235,-2.02802 0.9867,-0.0442 -0.0113,1.01404 -0.98669,0.0442 z m 0.0235,-2.02801 0.98667,-0.0442 -0.0113,1.01401 -0.98671,0.0442 z m 0.0235,-2.02803 0.98669,-0.0442 -0.0113,1.014 -0.98668,0.0442 z m 0.0235,-2.02806 0.98669,-0.0442 -0.0113,1.01402 -0.98669,0.0442 z m 0.0235,-2.02801 0.98669,-0.0442 -0.0113,1.01402 -0.98668,0.0442 z m 0.0235,-2.02802 0.98667,-0.0442 -0.0113,1.014 -0.9867,0.0442 z m 0.0235,-2.02802 0.98669,-0.0442 -0.0113,1.01399 -0.98668,0.0442 z m 0.0235,-2.02802 0.98668,-0.0442 -0.0113,1.01403 -0.98669,0.0442 z m 0.0235,-2.02803 0.98668,-0.0441 -0.0113,1.01401 -0.98668,0.0442 z m 0.0235,-2.02801 0.98669,-0.0442 -0.0113,1.01401 -0.98669,0.0442 z m 0.0235,-2.02807 0.98667,-0.0442 -0.0113,1.01401 -0.98667,0.0442 z m 0.0235,-2.02802 0.98666,-0.0442 -0.0113,1.01406 -0.98667,0.0442 z m 0.0235,-2.02803 0.98669,-0.0442 -0.0113,1.014 -0.98669,0.0442 z m 0.0235,-2.028 0.98668,-0.0442 -0.0113,1.014 -0.98668,0.0442 z m 0.0235,-2.028037 0.98666,-0.0442 -0.0113,1.014027 -0.98669,0.0442 z m 0.13416,-10.14203 c 0.13389,-0.274784 0.4533,-0.398067 0.71343,-0.275409 0.10193,0.0481 0.18406,0.129771 0.23414,0.232822 v 0 l 3.81942,7.861677 c 0.12751,0.2632 0.0187,0.59479 -0.24514,0.74101 -0.074,0.041 -0.15531,0.0644 -0.23748,0.0683 v 0 l -3.41806,0.15247 -0.003,0.30299 -0.98667,0.0443 0.003,-0.30286 -3.41586,0.15419 c -0.26003,0.0116 -0.47413,-0.17119 -0.51613,-0.42313 l -0.009,-0.0975 c 3.1e-4,-0.0845 0.021,-0.16872 0.0586,-0.24596 v 0 z"
         fill="#979797"
         fill-rule="nonzero" />
      <text
         id="Turbo-index-splits-s"
         font-family="Helvetica"
         font-size="8px"
         font-weight="normal"
         fill="#000000"
         y="53.586689"><tspan
           x="31.5"
           y="452.58728"
           id="tspan352">Split selected for the given query</tspan></text>
      <text
         id="METASTORE"
         font-family="Helvetica-Bold, Helvetica"
         font-size="9.67575px"
         font-weight="bold"
         fill="#000000"
         y="-16.429518"
         x="-165.48869"
         style="stroke-width:0.967575"><tspan
           x="188.16017"
           y="165.47469"
           id="tspan358"
           style="stroke-width:0.967575">METASTORE</tspan></text>
      <text
         id="Turbo-index-splits"
         font-family="Helvetica"
         font-size="8px"
         font-weight="normal"
         fill="#000000"
         y="53.586689"><tspan
           x="31.5"
           y="475.58728"
           id="tspan361">Split</tspan></text>
      <rect
         id="rect364"
         fill="#eaedf1"
         fill-rule="nonzero"
         x="224.8867"
         y="442.14828"
         width="31"
         height="20"
         rx="6.19385" />
      <text
         id="Stateless-search-ins"
         font-family="Helvetica"
         font-size="8px"
         font-weight="normal"
         fill="#000000"
         y="53.586689"><tspan
           x="264.5"
           y="452.58728"
           id="tspan366">Stateless search instance: any instance can answer to</tspan><tspan
           x="264.5"
           y="462.58728"
           id="tspan368">any query</tspan></text>
      <rect
         id="rect7634"
         fill="#eaedf1"
         fill-rule="nonzero"
         x="82.159431"
         y="162.30316"
         width="73.087883"
         height="45.834499"
         rx="6.19385" />
      <text
         xml:space="preserve"
         style="font-style:normal;font-weight:normal;font-size:25.2617px;line-height:1.25;font-family:sans-serif;fill:#000000;fill-opacity:1;stroke:none;stroke-width:0.631542"
         x="247.67107"
         y="185.7558"
         id="text9282"
         transform="scale(0.96640458,1.0347633)"><tspan
           sodipodi:role="line"
           id="tspan9280"
           style="stroke-width:0.631542"
           x="247.67107"
           y="185.7558" /></text>
      <text
         id="text10984"
         font-family="Helvetica-Bold, Helvetica"
         font-size="10px"
         font-weight="bold"
         fill="#000000"
         x="87.256378"
         y="33.230911"><tspan
           x="99.756332"
           y="187.23096"
           id="tspan10982">Indexer</tspan></text>
      <text
         id="text18722"
         font-family="Helvetica-Bold, Helvetica"
         font-size="10px"
         font-weight="bold"
         fill="#000000"
         x="366.78006"
         y="30.752707"><tspan
           x="379.28006"
           y="184.7527"
           id="tspan18720">Searcher</tspan></text>
      <path
         id="path22781"
         d="m 109.34634,303.02361 v 0.54548 h 3.46314 c 0.26685,0 0.48823,0.2124 0.52983,0.49069 l 0.007,0.095 c 0,0.0909 -0.0194,0.1806 -0.0567,0.26193 v 0 l -3.96308,8.64713 c -0.1326,0.28933 -0.45508,0.4066 -0.72027,0.26193 -0.1039,-0.0566 -0.18815,-0.14857 -0.24009,-0.26193 v 0 l -3.96309,-8.64713 c -0.13259,-0.28932 -0.0251,-0.64112 0.2401,-0.78578 0.0745,-0.0407 0.15674,-0.0619 0.24009,-0.0619 v 0 h 3.46307 v -0.54548 z m 0,-2.18192 v 1.09096 h -1 v -1.09096 z m 0,-2.18193 v 1.09097 h -1 v -1.09097 z m 0,-2.18192 v 1.09096 h -1 v -1.09096 z m 0,-2.18192 v 1.09096 h -1 v -1.09096 z m 0,-2.18192 v 1.09096 h -1 V 292.114 Z m 0,-2.18192 v 1.09096 h -1 v -1.09096 z m 0,-2.18193 v 1.09096 h -1 v -1.09096 z m 0,-2.18192 v 1.09096 h -1 v -1.09096 z m 0,-2.18192 v 1.09096 h -1 v -1.09096 z m 0,-2.18192 v 1.09096 h -1 v -1.09096 z m 0,-2.18192 v 1.09096 h -1 v -1.09096 z m 0,-2.18193 v 1.09096 h -1 v -1.09096 z"
         fill="#979797"
         fill-rule="nonzero"
         style="stroke-width:1.04449" />
      <path
         d="m 289.81828,158.43908 h 60.70018 c 3.42077,0 6.19385,2.77308 6.19385,6.19385 v 33.4468 c 0,3.42077 -2.77308,6.19385 -6.19385,6.19385 h -7.26239 v 0 h -20.89844 -32.53935 c -3.42077,0 -6.19385,-2.77308 -6.19385,-6.19385 v -33.4468 c 0,-3.42077 2.77308,-6.19385 6.19385,-6.19385 z"
         id="path22865"
         fill="#eaedf1"
         fill-rule="nonzero" />
      <text
         id="text22949"
         font-family="Helvetica-Bold, Helvetica"
         font-size="10px"
         font-weight="bold"
         fill="#000000"
         x="285.66693"
         y="30.142797"><tspan
           x="298.16693"
           y="184.14278"
           id="tspan22947">Searcher</tspan></text>
      <text
         id="text27363"
         font-family="Helvetica"
         font-size="7px"
         font-weight="normal"
         fill="#000000"
         x="-163.57079"
         y="-0.32162121"
         style="font-size:8.42056px"><tspan
           sodipodi:role="line"
           id="tspan27361"
           x="194.9292"
           y="205.67839"
           style="font-weight:normal"><tspan
             x="194.9292"
             y="205.67839"
             id="tspan27359"
             style="font-weight:normal;font-size:8.42056px">Tag pruning</tspan></tspan></text>
      <text
         id="text27939"
         font-family="Helvetica"
         font-size="7px"
         font-weight="normal"
         fill="#000000"
         x="-158.58536"
         y="33.44165"
         style="font-size:8.42056px"><tspan
           sodipodi:role="line"
           id="tspan27937"
           x="199.91469"
           y="239.44165"
           style="font-weight:normal"><tspan
             x="199.91469"
             y="239.44165"
             id="tspan27935"
             style="font-weight:normal;font-size:8.42056px"
             dx="0 0 0 0 0 0 0 0 0 0 0 0">Atomic split</tspan></tspan></text>
      <text
         id="text34823"
         font-family="Helvetica-Bold, Helvetica"
         font-size="10px"
         font-weight="bold"
         fill="#000000"
         x="185.69539"
         y="-78.526794"><tspan
           x="198.19528"
           y="75.473305"
           id="tspan34821">REST API</tspan></text>
      <rect
         id="rect36190"
         stroke="#d7d7d7"
         x="-10.652744"
         y="161.42503"
         width="65.565292"
         height="40.648994"
         rx="3.2462292"
         style="stroke-width:0.472059" />
      <path
         id="path39022"
         d="m 102.7096,89.719764 -0.98667,0.04422 0.0113,-1.013997 0.98667,-0.04422 z m -0.0235,2.028048 -0.98667,0.04422 0.0113,-1.014018 0.98668,-0.04422 z m -0.0235,2.028025 -0.98665,0.04422 0.0113,-1.013997 0.98668,-0.04422 z m -0.0235,2.028037 -0.98669,0.04422 0.0113,-1.013996 0.98668,-0.04422 z m -0.0235,2.028015 -0.98666,0.04422 0.0113,-1.014019 0.98666,-0.04422 z m -0.0235,2.028026 -0.98669,0.04422 0.0113,-1.014029 0.9867,-0.04422 z m -0.0235,2.028025 -0.98668,0.0442 0.0113,-1.01397 0.98669,-0.0442 z m -0.0235,2.02802 -0.9867,0.0442 0.0113,-1.01403 0.98667,-0.0442 z m -0.0225,2.02804 -0.9867,0.0442 0.0113,-1.01401 0.98672,-0.0442 z m -0.0235,2.02802 -0.9867,0.0442 0.0113,-1.01404 0.9867,-0.0442 z m -0.0235,2.02801 -0.98667,0.0442 0.0113,-1.01401 0.98672,-0.0442 z m -0.0235,2.02803 -0.98668,0.0442 0.0113,-1.01401 0.98668,-0.0442 z m -0.0235,2.02806 -0.98669,0.0442 0.0113,-1.01401 0.98669,-0.0442 z m -0.0235,2.02801 -0.98669,0.0442 0.0113,-1.01402 0.98669,-0.0442 z m -0.0235,2.02802 -0.98668,0.0442 0.0113,-1.014 0.98671,-0.0442 z m -0.0235,2.02802 -0.98668,0.0442 0.0113,-1.01399 0.98667,-0.0442 z m -0.0235,2.02802 -0.98668,0.0442 0.0113,-1.01402 0.98669,-0.0442 z m -0.0235,2.02803 -0.98667,0.0441 0.0113,-1.01401 0.98667,-0.0442 z m -0.0235,2.02801 -0.9867,0.0442 0.0113,-1.01402 0.9867,-0.0442 z m -0.0235,2.02807 -0.98667,0.0442 0.0113,-1.01401 0.98666,-0.0442 z m -0.0235,2.02802 -0.98666,0.0442 0.0113,-1.01406 0.98667,-0.0442 z m -0.0235,2.02803 -0.98668,0.0442 0.0113,-1.01401 0.98668,-0.0442 z m -0.0235,2.028 -0.98669,0.0442 0.0113,-1.014 0.98669,-0.0442 z m -0.0235,2.02805 -0.98667,0.0442 0.0113,-1.01404 0.9867,-0.0442 z m -0.13416,10.14202 c -0.1339,0.27478 -0.4533,0.39807 -0.71343,0.27541 -0.10193,-0.0481 -0.18406,-0.12977 -0.23414,-0.23282 v 0 l -3.81942,-7.86168 c -0.12752,-0.26319 -0.0187,-0.59478 0.24514,-0.74101 0.074,-0.041 0.15531,-0.0645 0.23748,-0.0683 v 0 l 3.41806,-0.15247 0.003,-0.303 0.98667,-0.0443 -0.003,0.30286 3.41586,-0.15419 c 0.26002,-0.0117 0.47413,0.17119 0.51613,0.42314 l 0.009,0.0975 c -3.2e-4,0.0845 -0.021,0.16873 -0.0586,0.24596 v 0 z"
         fill="#979797"
         fill-rule="nonzero" />
      <path
         id="path39024"
         d="m 117.69181,144.50896 0.98667,-0.0442 -0.0113,1.014 -0.98666,0.0442 z m 0.0235,-2.02805 0.98667,-0.0442 -0.0113,1.01402 -0.98668,0.0442 z m 0.0235,-2.02802 0.98666,-0.0442 -0.0113,1.014 -0.98669,0.0442 z m 0.0235,-2.02804 0.98669,-0.0442 -0.0113,1.014 -0.98668,0.0442 z m 0.0235,-2.02801 0.98667,-0.0442 -0.0113,1.01401 -0.98666,0.0442 z m 0.0235,-2.02803 0.98668,-0.0442 -0.0113,1.01403 -0.98669,0.0442 z m 0.0235,-2.02803 0.98669,-0.0442 -0.0113,1.01398 -0.9867,0.0442 z m 0.0235,-2.02802 0.9867,-0.0442 -0.0113,1.01403 -0.98667,0.0442 z m 0.0225,-2.02804 0.9867,-0.0442 -0.0113,1.01401 -0.98671,0.0442 z m 0.0235,-2.02802 0.9867,-0.0442 -0.0113,1.01404 -0.98669,0.0442 z m 0.0235,-2.02801 0.98667,-0.0442 -0.0113,1.01401 -0.98671,0.0442 z m 0.0235,-2.02803 0.98669,-0.0442 -0.0113,1.014 -0.98668,0.0442 z m 0.0235,-2.02806 0.98669,-0.0442 -0.0113,1.01402 -0.98669,0.0442 z m 0.0235,-2.02801 0.98669,-0.0442 -0.0113,1.01402 -0.98668,0.0442 z m 0.0235,-2.02802 0.98667,-0.0442 -0.0113,1.014 -0.9867,0.0442 z m 0.0235,-2.02802 0.98669,-0.0442 -0.0113,1.01399 -0.98668,0.0442 z m 0.0235,-2.02802 0.98668,-0.0442 -0.0113,1.01403 -0.98669,0.0442 z m 0.0235,-2.02803 0.98668,-0.0441 -0.0113,1.01401 -0.98668,0.0442 z m 0.0235,-2.02801 0.98669,-0.0442 -0.0113,1.01401 -0.98669,0.0442 z m 0.0235,-2.02807 0.98667,-0.0442 -0.0113,1.01401 -0.98667,0.0442 z m 0.0235,-2.02802 0.98666,-0.0442 -0.0113,1.01406 -0.98667,0.0442 z m 0.0235,-2.02803 0.98669,-0.0442 -0.0113,1.014 -0.98669,0.0442 z m 0.0235,-2.027998 0.98668,-0.0442 -0.0113,1.013998 -0.98668,0.0442 z m 0.0235,-2.02804 0.98666,-0.0442 -0.0113,1.01403 -0.98669,0.0442 z M 118.36547,87.7223 c 0.13389,-0.274784 0.4533,-0.398067 0.71343,-0.275409 0.10193,0.0481 0.18406,0.129771 0.23414,0.232822 v 0 l 3.81942,7.861676 c 0.12751,0.263197 0.0187,0.594787 -0.24514,0.741011 -0.074,0.04101 -0.15531,0.06443 -0.23748,0.06833 v 0 l -3.41806,0.152466 -0.003,0.302997 -0.98667,0.04431 0.003,-0.302858 -3.41586,0.154185 c -0.26003,0.01163 -0.47413,-0.171192 -0.51613,-0.423128 l -0.009,-0.09752 c 3.1e-4,-0.08452 0.021,-0.168724 0.0586,-0.24596 v 0 z"
         fill="#979797"
         fill-rule="nonzero" />
      <rect
         id="rect36190-8"
         stroke="#d7d7d7"
         x="16.485741"
         y="50.260033"
         width="81.32547"
         height="36.753014"
         rx="4.0265384"
         style="fill:none;fill-rule:evenodd;stroke:none;stroke-width:0.499911" />
      <text
         id="text1426"
         font-family="Helvetica-Bold, Helvetica"
         font-size="8.34631px"
         font-weight="bold"
         fill="#000000"
         x="0.58683294"
         y="201.18216"
         style="stroke-width:0.83463"><tspan
           x="11.019688"
           y="329.71588"
           id="tspan1424"
           style="stroke-width:0.83463">INDEX STORAGE</tspan></text>
      <path
         d="m 289.81828,217.25363 h 60.70018 c 3.42077,0 6.19385,2.77308 6.19385,6.19385 v 33.4468 c 0,3.42077 -2.77308,6.19385 -6.19385,6.19385 h -7.26239 v 0 h -20.89844 -32.53935 c -3.42077,0 -6.19385,-2.77308 -6.19385,-6.19385 v -33.4468 c 0,-3.42077 2.77308,-6.19385 6.19385,-6.19385 z"
         id="path2156"
         fill="#eaedf1"
         fill-rule="nonzero" />
      <text
         id="text2160"
         font-family="Helvetica-Bold, Helvetica"
         font-size="10px"
         font-weight="bold"
         fill="#000000"
         x="285.66693"
         y="88.95742"><tspan
           x="298.16693"
           y="242.9574"
           id="tspan2158">Searcher</tspan></text>
      <rect
         id="rect2162"
         stroke="#d7d7d7"
         x="272.8389"
         y="148.88814"
         width="171.05023"
         height="131.69946"
         rx="3.024621"
         style="stroke-width:0.819015" />
      <path
         id="path2266"
         d="m 256.27795,190.02969 c 0.19199,-0.13259 0.42544,-0.0251 0.52143,0.2401 0.027,0.0745 0.041,0.15674 0.041,0.24009 v 0 3.46302 h 0.36196 v 1 h -0.36196 v 3.46314 c 0,0.26685 -0.14094,0.48823 -0.32561,0.52983 l -0.0631,0.007 c -0.0603,0 -0.11984,-0.0194 -0.17381,-0.0567 v 0 l -5.73805,-3.96308 c -0.19199,-0.1326 -0.26981,-0.45508 -0.17381,-0.72027 0.0375,-0.1039 0.0986,-0.18815 0.17381,-0.24009 v 0 z m 22.64259,3.94321 v 1 h -0.72394 v -1 z m -1.44787,0 v 1 h -0.72394 v -1 z m -1.44788,0 v 1 h -0.72394 v -1 z m -1.44788,0 v 1 h -0.72394 v -1 z m -1.44788,0 v 1 h -0.72393 v -1 z m -1.44788,0 v 1 h -0.72393 v -1 z m -1.44786,0 v 1 h -0.72395 v -1 z m -1.44789,0 v 1 h -0.72393 v -1 z m -1.44787,0 v 1 h -0.72394 v -1 z m -1.44788,0 v 1 h -0.72393 v -1 z m -1.44788,0 v 1 h -0.72394 v -1 z m -1.44787,0 v 1 h -0.72395 v -1 z m -1.44788,0 v 1 h -0.72394 v -1 z m -1.44788,0 v 1 h -0.72394 v -1 z m -1.44788,0 v 1 h -0.72393 v -1 z"
         fill="#979797"
         fill-rule="nonzero"
         style="stroke-width:0.850846" />
      <path
         id="path2448"
         d="m 274.47801,176.33253 c 0.057,0 0.11326,0.0194 0.16427,0.0567 v 0 l 5.42317,3.96308 c 0.18146,0.1326 0.255,0.45508 0.16427,0.72027 -0.0355,0.1039 -0.0932,0.18814 -0.16427,0.24009 v 0 l -5.42317,3.96308 c -0.18145,0.1326 -0.40209,0.0251 -0.49282,-0.24009 -0.0254,-0.0745 -0.0389,-0.15674 -0.0389,-0.24009 v 0 -7.92616 c 10e-6,-0.29652 0.16448,-0.53688 0.36734,-0.53688 z m -22.60422,4 v 1 h -0.68421 v -1 z m 1.36843,0 v 1 H 252.558 v -1 z m 1.36842,0 v 1 h -0.68421 v -1 z m 1.36842,0 v 1 h -0.68421 v -1 z m 1.36843,0 v 1 h -0.68421 v -1 z m 1.36842,0 v 1 h -0.68421 v -1 z m 1.36842,0 v 1 h -0.68421 v -1 z m 1.36843,0 v 1 h -0.68421 v -1 z m 1.36842,0 v 1 h -0.68421 v -1 z m 1.36843,0 v 1 h -0.68422 v -1 z m 1.36842,0 v 1 h -0.68421 v -1 z m 1.36842,0 v 1 h -0.6842 v -1 z m 1.36843,0 v 1 h -0.68422 v -1 z m 1.36842,0 v 1 h -0.68421 v -1 z m 1.36843,0 v 1 h -0.68422 v -1 z m 1.36842,0 v 1 h -0.68421 v -1 z m 1.36842,0 v 1 h -0.68421 v -1 z"
         fill="#979797"
         fill-rule="nonzero"
         style="stroke-width:0.827171" />
      <rect
         id="rect2564"
         fill="#eaedf1"
         fill-rule="nonzero"
         x="82.159431"
         y="218.5038"
         width="73.087883"
         height="45.834499"
         rx="6.19385" />
      <text
         id="text2568"
         font-family="Helvetica-Bold, Helvetica"
         font-size="10px"
         font-weight="bold"
         fill="#000000"
         x="87.256378"
         y="89.431549"><tspan
           x="99.756332"
           y="243.43159"
           id="tspan2566">Indexer</tspan></text>
      <rect
         id="rect2650"
         stroke="#d7d7d7"
         x="70.883492"
         y="148.83325"
         width="95.953842"
         height="132.78198"
         rx="4.7508101"
         style="stroke-width:1.03212" />
      <path
         id="path2652"
         d="m 167.1705,246.23026 c 0.19199,-0.13259 0.42544,-0.0251 0.52143,0.2401 0.027,0.0745 0.041,0.15674 0.041,0.24009 v 0 3.46302 h 0.36196 v 1 h -0.36196 v 3.46314 c 0,0.26685 -0.14094,0.48823 -0.32561,0.52983 l -0.0631,0.007 c -0.0603,0 -0.11984,-0.0194 -0.17381,-0.0567 v 0 l -5.73805,-3.96308 c -0.19199,-0.1326 -0.26981,-0.45508 -0.17381,-0.72027 0.0375,-0.1039 0.0986,-0.18815 0.17381,-0.24009 v 0 z m 22.64259,3.94321 v 1 h -0.72394 v -1 z m -1.44787,0 v 1 h -0.72394 v -1 z m -1.44788,0 v 1 h -0.72394 v -1 z m -1.44788,0 v 1 h -0.72394 v -1 z m -1.44788,0 v 1 h -0.72393 v -1 z m -1.44788,0 v 1 h -0.72393 v -1 z m -1.44786,0 v 1 h -0.72395 v -1 z m -1.44789,0 v 1 h -0.72393 v -1 z m -1.44787,0 v 1 h -0.72394 v -1 z m -1.44788,0 v 1 h -0.72393 v -1 z m -1.44788,0 v 1 h -0.72394 v -1 z m -1.44787,0 v 1 h -0.72395 v -1 z m -1.44788,0 v 1 h -0.72394 v -1 z m -1.44788,0 v 1 h -0.72394 v -1 z m -1.44788,0 v 1 h -0.72393 v -1 z"
         fill="#979797"
         fill-rule="nonzero"
         style="stroke-width:0.850846" />
      <path
         id="path2654"
         d="m 185.37056,232.5331 c 0.057,0 0.11326,0.0194 0.16427,0.0567 v 0 l 5.42317,3.96308 c 0.18146,0.1326 0.255,0.45508 0.16427,0.72027 -0.0355,0.1039 -0.0932,0.18814 -0.16427,0.24009 v 0 l -5.42317,3.96308 c -0.18145,0.1326 -0.40209,0.0251 -0.49282,-0.24009 -0.0254,-0.0745 -0.0389,-0.15674 -0.0389,-0.24009 v 0 -7.92616 c 1e-5,-0.29652 0.16448,-0.53688 0.36734,-0.53688 z m -22.60422,4 v 1 h -0.68421 v -1 z m 1.36843,0 v 1 h -0.68422 v -1 z m 1.36842,0 v 1 h -0.68421 v -1 z m 1.36842,0 v 1 h -0.68421 v -1 z m 1.36843,0 v 1 h -0.68421 v -1 z m 1.36842,0 v 1 h -0.68421 v -1 z m 1.36842,0 v 1 h -0.68421 v -1 z m 1.36843,0 v 1 h -0.68421 v -1 z m 1.36842,0 v 1 h -0.68421 v -1 z m 1.36843,0 v 1 h -0.68422 v -1 z m 1.36842,0 v 1 h -0.68421 v -1 z m 1.36842,0 v 1 h -0.6842 v -1 z m 1.36843,0 v 1 h -0.68422 v -1 z m 1.36842,0 v 1 h -0.68421 v -1 z m 1.36843,0 v 1 h -0.68422 v -1 z m 1.36842,0 v 1 h -0.68421 v -1 z m 1.36842,0 v 1 h -0.68421 v -1 z"
         fill="#979797"
         fill-rule="nonzero"
         style="stroke-width:0.827171" />
      <text
         id="text4380"
         font-family="Helvetica"
         font-size="7px"
         font-weight="normal"
         fill="#000000"
         x="203.07809"
         y="252.12483"
         style="font-size:8.42056px"><tspan
           sodipodi:role="line"
           id="tspan4378"
           x="203.07809"
           y="252.12483"
           style="font-weight:normal">publishing<tspan
   x="561.57812"
   y="458.12485"
   id="tspan4376"
   style="font-weight:normal;font-size:8.42056px" /></tspan></text>
      <rect
         id="rect7038"
         stroke="#d7d7d7"
         x="0.49775502"
         y="57.621349"
         width="455.3443"
         height="30.664341"
         rx="5.6997871"
         style="stroke-width:0.509177" />
      <path
         id="path7040"
         d="m 339.56962,91.123631 -0.98667,0.04422 0.0113,-1.013997 0.98667,-0.04422 z m -0.0235,2.028046 -0.98667,0.0442 0.0113,-1.014013 0.98668,-0.0442 z m -0.0235,2.02802 -0.98665,0.0442 0.0113,-1.01399 0.98668,-0.0442 z m -0.0235,2.02804 -0.98669,0.0442 0.0113,-1.014 0.98668,-0.0442 z m -0.0235,2.02802 -0.98666,0.0442 0.0113,-1.01402 0.98666,-0.0442 z m -0.0235,2.028023 -0.98669,0.0442 0.0113,-1.01403 0.9867,-0.0442 z m -0.0235,2.02802 -0.98668,0.0442 0.0113,-1.01398 0.98669,-0.0442 z m -0.0235,2.02801 -0.9867,0.0442 0.0113,-1.01402 0.98667,-0.0442 z m -0.0225,2.02804 -0.9867,0.0442 0.0113,-1.01401 0.98672,-0.0442 z m -0.0235,2.02802 -0.9867,0.0442 0.0113,-1.01404 0.9867,-0.0442 z m -0.0235,2.028 -0.98667,0.0442 0.0113,-1.014 0.98672,-0.0442 z m -0.0235,2.02803 -0.98668,0.0442 0.0113,-1.01401 0.98668,-0.0442 z m -0.0235,2.02805 -0.98669,0.0442 0.0113,-1.01401 0.98669,-0.0442 z m -0.0235,2.02801 -0.98669,0.0442 0.0113,-1.01402 0.98669,-0.0442 z m -0.0235,2.02802 -0.98668,0.0442 0.0113,-1.014 0.98671,-0.0442 z m -0.0235,2.02802 -0.98668,0.0442 0.0113,-1.01399 0.98667,-0.0442 z m -0.0235,2.02802 -0.98668,0.0442 0.0113,-1.01402 0.98669,-0.0442 z m -0.0235,2.02803 -0.98667,0.0441 0.0113,-1.01401 0.98667,-0.0442 z m -0.0235,2.02801 -0.9867,0.0442 0.0113,-1.01402 0.9867,-0.0442 z m -0.0235,2.02807 -0.98667,0.0442 0.0113,-1.01401 0.98666,-0.0442 z m -0.0235,2.02802 -0.98666,0.0442 0.0113,-1.01406 0.98667,-0.0442 z m -0.0235,2.02803 -0.98668,0.0442 0.0113,-1.01401 0.98668,-0.0442 z m -0.0235,2.028 -0.98669,0.0442 0.0113,-1.014 0.98669,-0.0442 z m -0.0235,2.02805 -0.98667,0.0442 0.0113,-1.01404 0.9867,-0.0442 z m -0.13416,10.14202 c -0.1339,0.27478 -0.4533,0.39807 -0.71343,0.27541 -0.10193,-0.0481 -0.18406,-0.12977 -0.23414,-0.23282 v 0 l -3.81942,-7.86168 c -0.12752,-0.26319 -0.0187,-0.59478 0.24514,-0.74101 0.074,-0.041 0.15531,-0.0645 0.23748,-0.0683 v 0 l 3.41806,-0.15247 0.003,-0.303 0.98667,-0.0443 -0.003,0.30286 3.41586,-0.15419 c 0.26002,-0.0117 0.47413,0.17119 0.51613,0.42314 l 0.009,0.0975 c -3.2e-4,0.0845 -0.021,0.16873 -0.0586,0.24596 v 0 z"
         fill="#979797"
         fill-rule="nonzero" />
      <text
         id="text8955"
         font-family="Helvetica-Bold, Helvetica"
         font-size="10px"
         font-weight="bold"
         fill="#000000"
         x="-9.1568584"
         y="22.174749"><tspan
           x="3.3430989"
           y="176.1748"
           id="tspan8953">KAFKA</tspan></text>
      <path
         id="path9369"
         d="m 79.17401,171.10457 c 0.057,0 0.11326,0.0194 0.16427,0.0567 v 0 l 5.42317,3.96308 c 0.18146,0.1326 0.255,0.45508 0.16427,0.72027 -0.0355,0.1039 -0.0932,0.18814 -0.16427,0.24009 v 0 l -5.42317,3.96308 c -0.18145,0.1326 -0.40209,0.0251 -0.49282,-0.24009 -0.0254,-0.0745 -0.0389,-0.15674 -0.0389,-0.24009 v 0 -7.92616 c 10e-6,-0.29652 0.16448,-0.53688 0.36734,-0.53688 z m -22.60422,4 v 1 h -0.68421 v -1 z m 1.36843,0 v 1 H 57.254 v -1 z m 1.36842,0 v 1 h -0.68421 v -1 z m 1.36842,0 v 1 h -0.68421 v -1 z m 1.36843,0 v 1 h -0.68421 v -1 z m 1.36842,0 v 1 H 62.7277 v -1 z m 1.36842,0 v 1 h -0.68421 v -1 z m 1.36843,0 v 1 h -0.68421 v -1 z m 1.36842,0 v 1 h -0.68421 v -1 z m 1.36843,0 v 1 h -0.68422 v -1 z m 1.36842,0 v 1 h -0.68421 v -1 z m 1.36842,0 v 1 h -0.6842 v -1 z m 1.36843,0 v 1 h -0.68422 v -1 z m 1.36842,0 v 1 h -0.68421 v -1 z m 1.36843,0 v 1 h -0.68422 v -1 z m 1.36842,0 v 1 h -0.68421 v -1 z m 1.36842,0 v 1 h -0.68421 v -1 z"
         fill="#979797"
         fill-rule="nonzero"
         style="stroke-width:0.827171" />
      <text
         id="text13805"
         font-family="Helvetica-Bold, Helvetica"
         font-size="10px"
         font-weight="bold"
         fill="#000000"
         x="-6.715559"
         y="36.55167"><tspan
           x="5.7843986"
           y="190.55171"
           id="tspan13803">TOPIC</tspan></text>
      <rect
         id="rect14425"
         stroke="#d7d7d7"
         x="-10.652744"
         y="220.23965"
         width="65.565292"
         height="40.648994"
         rx="3.2462292"
         style="stroke-width:0.472059" />
      <text
         id="text14429"
         font-family="Helvetica-Bold, Helvetica"
         font-size="10px"
         font-weight="bold"
         fill="#000000"
         x="-9.1568584"
         y="80.989388"><tspan
           x="3.3430989"
           y="234.98943"
           id="tspan14427">OTHER</tspan></text>
      <text
         id="text14433"
         font-family="Helvetica-Bold, Helvetica"
         font-size="10px"
         font-weight="bold"
         fill="#000000"
         x="-12.818808"
         y="95.366295"><tspan
           x="-0.3188509"
           y="249.36633"
           id="tspan14431">QUEUES</tspan></text>
      <path
         id="path15915"
         d="m 79.17401,229.91912 c 0.057,0 0.11326,0.0194 0.16427,0.0567 v 0 l 5.42317,3.96308 c 0.18146,0.1326 0.255,0.45508 0.16427,0.72027 -0.0355,0.1039 -0.0932,0.18814 -0.16427,0.24009 v 0 l -5.42317,3.96308 c -0.18145,0.1326 -0.40209,0.0251 -0.49282,-0.24009 -0.0254,-0.0745 -0.0389,-0.15674 -0.0389,-0.24009 v 0 -7.92616 c 10e-6,-0.29652 0.16448,-0.53688 0.36734,-0.53688 z m -22.60422,4 v 1 h -0.68421 v -1 z m 1.36843,0 v 1 H 57.254 v -1 z m 1.36842,0 v 1 h -0.68421 v -1 z m 1.36842,0 v 1 h -0.68421 v -1 z m 1.36843,0 v 1 h -0.68421 v -1 z m 1.36842,0 v 1 H 62.7277 v -1 z m 1.36842,0 v 1 h -0.68421 v -1 z m 1.36843,0 v 1 h -0.68421 v -1 z m 1.36842,0 v 1 h -0.68421 v -1 z m 1.36843,0 v 1 h -0.68422 v -1 z m 1.36842,0 v 1 h -0.68421 v -1 z m 1.36842,0 v 1 h -0.6842 v -1 z m 1.36843,0 v 1 h -0.68422 v -1 z m 1.36842,0 v 1 h -0.68421 v -1 z m 1.36843,0 v 1 h -0.68422 v -1 z m 1.36842,0 v 1 h -0.68421 v -1 z m 1.36842,0 v 1 h -0.68421 v -1 z"
         fill="#979797"
         fill-rule="nonzero"
         style="stroke-width:0.827171" />
      <path
         id="path15917"
         d="m 59.558328,183.98893 c 0.19199,-0.13259 0.42544,-0.0251 0.52143,0.2401 0.027,0.0745 0.041,0.15674 0.041,0.24009 v 0 3.46302 h 0.36196 v 1 h -0.36196 v 3.46314 c 0,0.26685 -0.14094,0.48823 -0.32561,0.52983 l -0.0631,0.007 c -0.0603,0 -0.11984,-0.0194 -0.17381,-0.0567 v 0 l -5.73805,-3.96308 c -0.19199,-0.1326 -0.26981,-0.45508 -0.17381,-0.72027 0.0375,-0.1039 0.0986,-0.18815 0.17381,-0.24009 v 0 z m 22.64259,3.94321 v 1 h -0.72394 v -1 z m -1.44787,0 v 1 h -0.72394 v -1 z m -1.44788,0 v 1 h -0.72394 v -1 z m -1.44788,0 v 1 h -0.72394 v -1 z m -1.44788,0 v 1 h -0.72393 v -1 z m -1.44788,0 v 1 h -0.72393 v -1 z m -1.44786,0 v 1 h -0.72395 v -1 z m -1.44789,0 v 1 h -0.72393 v -1 z m -1.44787,0 v 1 h -0.72394 v -1 z m -1.44788,0 v 1 h -0.72393 v -1 z m -1.44788,0 v 1 h -0.72394 v -1 z m -1.44787,0 v 1 h -0.72395 v -1 z m -1.44788,0 v 1 h -0.72394 v -1 z m -1.44788,0 v 1 h -0.72394 v -1 z m -1.44788,0 v 1 h -0.72393 v -1 z"
         fill="#979797"
         fill-rule="nonzero"
         style="stroke-width:0.850846" />
      <path
         id="path15919"
         d="m 59.558328,242.80348 c 0.19199,-0.13259 0.42544,-0.0251 0.52143,0.2401 0.027,0.0745 0.041,0.15674 0.041,0.24009 v 0 3.46302 h 0.36196 v 1 h -0.36196 v 3.46314 c 0,0.26685 -0.14094,0.48823 -0.32561,0.52983 l -0.0631,0.007 c -0.0603,0 -0.11984,-0.0194 -0.17381,-0.0567 v 0 l -5.73805,-3.96308 c -0.19199,-0.1326 -0.26981,-0.45508 -0.17381,-0.72027 0.0375,-0.1039 0.0986,-0.18815 0.17381,-0.24009 v 0 z m 22.64259,3.94321 v 1 h -0.72394 v -1 z m -1.44787,0 v 1 h -0.72394 v -1 z m -1.44788,0 v 1 h -0.72394 v -1 z m -1.44788,0 v 1 h -0.72394 v -1 z m -1.44788,0 v 1 h -0.72393 v -1 z m -1.44788,0 v 1 h -0.72393 v -1 z m -1.44786,0 v 1 h -0.72395 v -1 z m -1.44789,0 v 1 h -0.72393 v -1 z m -1.44787,0 v 1 h -0.72394 v -1 z m -1.44788,0 v 1 h -0.72393 v -1 z m -1.44788,0 v 1 h -0.72394 v -1 z m -1.44787,0 v 1 h -0.72395 v -1 z m -1.44788,0 v 1 h -0.72394 v -1 z m -1.44788,0 v 1 h -0.72394 v -1 z m -1.44788,0 v 1 h -0.72393 v -1 z"
         fill="#979797"
         fill-rule="nonzero"
         style="stroke-width:0.850846" />
      <text
         id="text16045"
         font-family="Helvetica-Bold, Helvetica"
         font-size="6.09607px"
         font-weight="bold"
         fill="#000000"
         x="219.83914"
         y="359.14746"
         style="stroke-width:0.609607"><tspan
           x="227.45914"
           y="453.02679"
           id="tspan16043"
           style="stroke-width:0.609607">Searcher</tspan></text>
      <text
         id="text16051"
         font-family="Helvetica"
         font-size="7px"
         font-weight="normal"
         fill="#000000"
         x="126.62163"
         y="297.50983"
         style="font-size:7.76588px;stroke-width:0.922252"><tspan
           sodipodi:role="line"
           id="tspan16049"
           x="126.62163"
           y="297.50983"
           style="font-weight:normal;stroke-width:0.922252">Splits upload/download</tspan></text>
      <path
         id="path16053"
         d="m 124.6192,313.87353 v 1 h -1 v -1 z m 0,-2 v 1 h -1 v -1 z m 0,-2 v 1 h -1 v -1 z m 0,-2 v 1 h -1 v -1 z m 0,-2 v 1 h -1 v -1 z m 0,-2 v 1 h -1 v -1 z m 0,-2 v 1 h -1 v -1 z m 0,-2 v 1 h -1 v -1 z m 0,-2 v 1 h -1 v -1 z m 0,-2 v 1 h -1 v -1 z m 0,-2 v 1 h -1 v -1 z m 0,-2 v 1 h -1 v -1 z m 0,-2 v 1 h -1 v -1 z m 0,-2 v 1 h -1 v -1 z m 0,-2 v 1 h -1 v -1 z m -0.98024,-9.20311 c 0.1326,-0.2652 0.45508,-0.37269 0.72027,-0.2401 0.1039,0.052 0.18814,0.1362 0.24009,0.2401 v 0 l 3.96308,7.92616 c 0.1326,0.2652 0.0251,0.58767 -0.24009,0.72027 -0.0745,0.0373 -0.15674,0.0567 -0.24009,0.0567 v 0 h -7.92616 c -0.2965,0 -0.53686,-0.24036 -0.53686,-0.53686 0,-0.0833 0.0194,-0.16555 0.0567,-0.24009 v 0 z"
         fill="#979797"
         fill-rule="nonzero" />
      <text
         id="text21051"
         font-family="Helvetica"
         font-size="7px"
         font-weight="normal"
         fill="#000000"
         x="335.09964"
         y="295.55417"
         style="font-size:7.76588px;stroke-width:0.922252"><tspan
           sodipodi:role="line"
           id="tspan21049"
           x="335.09964"
           y="295.55417"
           style="font-weight:normal;stroke-width:0.922252"
           dx="0 0 0 0 0 0 0 0 0 0 0 0 0">Range queries to storage</tspan></text>
      <text
         id="text22589"
         font-family="Helvetica"
         font-size="7px"
         font-weight="normal"
         fill="#000000"
         x="358.09299"
         y="121.72489"
         style="font-size:7.76588px;stroke-width:0.922252"><tspan
           sodipodi:role="line"
           id="tspan22587"
           x="358.09299"
           y="121.72489"
           style="font-weight:normal;stroke-width:0.922252">Search and stream requests</tspan></text>
    </g>
  </g>
</svg>
